<svg width="203" height="74" viewBox="0 0 203 74" fill="none" xmlns="http://www.w3.org/2000/svg">
<path d="M202.51 0H0L26.4984 71.2417C27.0347 72.6836 28.411 73.6401 29.9494 73.6401H170.822C172.332 73.6401 173.689 72.7183 174.245 71.3147L202.51 0Z" fill="#321940"/>
<path d="M108.621 33.0391C108.744 33.1216 108.856 33.2201 108.952 33.3319L120.012 44.108C120.232 44.3465 120.501 44.5372 120.801 44.6677C121.101 44.7983 121.427 44.8658 121.755 44.8658C122.084 44.8658 122.41 44.7983 122.71 44.6677C123.01 44.5372 123.279 44.3465 123.499 44.108C125.122 42.4976 126.775 40.9161 128.398 39.3351L139.158 28.8513C139.286 28.7312 139.406 28.6041 139.519 28.4706C139.916 28.0486 140.131 27.494 140.12 26.9216C140.108 26.3493 139.872 25.803 139.459 25.396C138.887 24.8106 138.286 24.2541 137.685 23.6682L123.71 10.0554L123.349 9.70418C123.134 9.49395 122.877 9.32772 122.595 9.21521C122.312 9.10269 122.01 9.04615 121.705 9.04889C121.4 9.05163 121.098 9.1136 120.818 9.23117C120.538 9.34874 120.285 9.51955 120.073 9.73362L112.679 16.9352C109.974 19.5707 107.299 22.2061 104.595 24.8122L83.6456 45.2221C83.222 45.6675 82.6959 46.0085 82.1107 46.2173C81.5255 46.426 80.8978 46.4965 80.2792 46.4229C79.3733 46.3304 78.5312 45.9254 77.9049 45.281C77.2137 44.5782 76.4924 43.9048 75.771 43.202C71.2326 38.7509 66.6741 34.2999 62.0957 29.8488C61.4461 29.278 61.0033 28.5179 60.8334 27.6819C60.7018 27.0638 60.732 26.4234 60.921 25.8196C61.1101 25.2158 61.452 24.668 61.9152 24.2267C63.2396 22.909 64.6203 21.5912 65.9711 20.2751L77.8751 8.67758C78.5851 7.94967 79.5514 7.51034 80.5801 7.44775C81.1292 7.41274 81.6795 7.4941 82.1932 7.68623C82.7069 7.87835 83.1718 8.17667 83.5558 8.56064C84.4576 9.40983 85.3292 10.2885 86.2008 11.1376L91.43 16.2324C92.4232 17.2001 93.4136 18.165 94.4056 19.1021L94.5261 19.2191C94.6163 19.2775 94.6163 19.3654 94.5261 19.4533C94.1656 19.7759 93.8349 20.1267 93.5042 20.4783C93.3905 20.4063 93.2891 20.3173 93.2038 20.2146L82.5335 9.81951C82.2387 9.50106 81.8668 9.25947 81.4517 9.11669C81.0441 8.9886 80.6076 8.97561 80.1928 9.07923C79.7779 9.18285 79.4016 9.39883 79.1076 9.70217L75.3505 13.3618L63.1783 25.2222C62.839 25.5344 62.5901 25.9283 62.457 26.3642C62.3567 26.7405 62.3595 27.1358 62.4649 27.5108C62.5703 27.8858 62.7748 28.2273 63.0579 28.5013C63.5988 29.0283 64.1398 29.5553 64.6811 30.1117L78.988 44.0512C79.3209 44.4019 79.7476 44.6555 80.22 44.7834C80.5923 44.8811 80.9848 44.8781 81.3554 44.775C81.7261 44.6719 82.061 44.4724 82.3241 44.1979L84.3078 42.2653L94.4665 32.3674C95.6667 31.198 96.9008 29.9956 98.1031 28.7948L107.001 20.1255C110.938 16.2896 114.876 12.4828 118.783 8.64653C119.287 8.13007 119.918 7.7471 120.617 7.53363C121.284 7.32967 121.997 7.30924 122.676 7.47458C123.355 7.63991 123.974 7.98461 124.465 8.47072C126.239 10.1397 127.952 11.8675 129.725 13.5659L140.515 24.0783C141.183 24.675 141.609 25.4856 141.715 26.3626C141.806 26.9652 141.748 27.5804 141.544 28.1563C141.34 28.7322 140.997 29.2518 140.543 29.6714L136.305 33.8004L124.676 45.131C124.264 45.5624 123.762 45.902 123.203 46.1266C122.499 46.4213 121.72 46.5008 120.968 46.3544C120.217 46.208 119.529 45.8427 118.995 45.3068C117.613 44.0165 116.26 42.6713 114.908 41.3242L107.72 34.3295C107.48 34.0952 107.48 34.0952 107.72 33.8609C108.049 33.6179 108.35 33.3426 108.621 33.0391Z" fill="white"/>
<path d="M81.3434 62.9172V66.3724C81.3434 66.6361 81.3434 66.6361 81.0728 66.6361H80.5319C80.2612 66.6361 80.2914 66.6361 80.2914 66.3724V57.7031C80.2914 57.3225 80.2314 57.3519 80.6225 57.3519H81.1618C81.312 57.3519 81.3422 57.4104 81.3422 57.5277V58.3777C81.4324 58.3777 81.4622 58.3193 81.4622 58.2898C81.7445 57.8628 82.1582 57.5337 82.644 57.3496C83.1299 57.1655 83.663 57.1359 84.1672 57.2648C84.6279 57.3451 85.0547 57.5538 85.3962 57.8656C85.7376 58.1774 85.9789 58.579 86.0909 59.0217C86.4128 60.0199 86.3704 61.096 85.9709 62.0672C85.8281 62.4961 85.5727 62.8812 85.2301 63.1843C84.8874 63.4874 84.4694 63.6979 84.0174 63.795C82.9654 63.9999 82.064 63.8245 81.4328 62.9164C81.4334 62.8876 81.4036 62.8879 81.3434 62.9172ZM81.3434 60.6039V61.3067C81.3621 61.5663 81.438 61.8188 81.566 62.0472C81.6939 62.2756 81.8709 62.4743 82.0849 62.63C82.2989 62.7857 82.5448 62.8945 82.8059 62.9492C83.0669 63.0038 83.337 63.003 83.5978 62.9467C83.9219 62.8746 84.2207 62.7201 84.4636 62.4989C84.7065 62.2776 84.8848 61.9976 84.9805 61.6874C85.1701 61.1415 85.2417 60.5632 85.1907 59.989C85.1756 59.6326 85.0834 59.2833 84.9201 58.964C84.8065 58.7456 84.6455 58.5539 84.4482 58.4022C84.251 58.2505 84.0222 58.1424 83.7778 58.0854C83.5269 58.025 83.2662 58.0145 83.0111 58.0544C82.756 58.0943 82.5117 58.1839 82.2929 58.3178C82.0741 58.4517 81.8852 58.6271 81.7375 58.8337C81.5898 59.0403 81.4863 59.2737 81.4332 59.5201C81.3598 59.8767 81.3296 60.2405 81.3434 60.6039Z" fill="white"/>
<path d="M78.2175 56.1236C77.562 55.7516 76.8114 55.5688 76.0534 55.5966C75.6896 55.601 75.331 55.6809 75.0013 55.8309C74.8028 55.9197 74.6309 56.0564 74.5018 56.228C74.3727 56.3996 74.2907 56.6005 74.2636 56.8117C74.2365 57.0228 74.2652 57.2372 74.3469 57.4346C74.4287 57.6319 74.5607 57.8056 74.7307 57.9393C74.9624 58.1224 75.2145 58.2796 75.4822 58.4079C75.9934 58.6716 76.5343 58.9059 77.045 59.2276C77.3975 59.4291 77.7209 59.6754 78.0068 59.9599C78.4034 60.362 78.6322 60.8935 78.6489 61.451C78.6656 62.0084 78.4689 62.552 78.097 62.976C77.6607 63.391 77.1051 63.6667 76.5041 63.7667C75.5299 63.9346 74.5282 63.8642 73.5888 63.5619C73.5288 63.5324 73.4688 63.5324 73.4084 63.5034C73.1377 63.3865 73.1377 63.3865 73.1377 63.0933V62.1562C73.7439 62.5912 74.4615 62.8546 75.2116 62.9175C75.6639 62.976 76.1237 62.9461 76.5641 62.8296C76.7935 62.7705 77.0025 62.6528 77.1694 62.4885C77.3363 62.3242 77.455 62.1193 77.5133 61.8953C77.5716 61.6712 77.5672 61.436 77.5008 61.2141C77.4343 60.9922 77.3081 60.7916 77.1352 60.6333C76.8771 60.3958 76.5832 60.1983 76.2636 60.0478L74.7323 59.2571C74.4388 59.1057 74.1661 58.9187 73.9207 58.7006C73.6594 58.4787 73.4553 58.2 73.3252 57.8869C73.1951 57.5738 73.1425 57.2353 73.1718 56.8988C73.2011 56.5622 73.3113 56.2371 73.4937 55.9499C73.676 55.6626 73.9252 55.4213 74.2212 55.2454C74.8162 54.9117 75.4882 54.7304 76.1746 54.7184C76.7718 54.6736 77.3724 54.7331 77.948 54.8942C78.3085 54.9821 78.3085 55.0115 78.3085 55.3627V56.0926C78.2477 56.0647 78.2175 56.0926 78.2175 56.1236Z" fill="white"/>
<path d="M92.7346 62.3025V63.0638C92.7396 63.1248 92.7248 63.1858 92.6925 63.2383C92.6601 63.2908 92.6118 63.3321 92.5542 63.3565C92.1748 63.5756 91.757 63.7245 91.3221 63.7956C90.8174 63.893 90.299 63.903 89.7908 63.8251C89.2998 63.7588 88.8393 63.5545 88.4657 63.2373C88.092 62.92 87.8213 62.5036 87.6867 62.0388C87.3509 61.1084 87.3616 60.0925 87.7169 59.169C87.8376 58.8103 88.0301 58.4785 88.2832 58.1927C88.5364 57.9069 88.8452 57.6729 89.1917 57.5042C89.5383 57.3354 89.9158 57.2353 90.3024 57.2096C90.6889 57.1839 91.0769 57.2332 91.4438 57.3545C91.7776 57.4586 92.0819 57.6373 92.3324 57.8762C92.5829 58.1151 92.7726 58.4077 92.8865 58.7307C93.1106 59.3503 93.2027 60.0079 93.1572 60.6634C93.1572 60.7513 93.127 60.7803 93.0371 60.7803H88.7371C88.6469 60.7803 88.5869 60.8098 88.5869 60.9267C88.6171 61.9517 89.218 62.9472 90.5403 62.9767C91.1995 63.0066 91.8515 62.8323 92.4027 62.4787C92.5248 62.4434 92.638 62.3834 92.7346 62.3025ZM88.6171 59.9307H91.5928C92.1639 59.9307 92.1639 59.9307 92.0737 59.3743C92.0358 59.111 91.9284 58.8619 91.7621 58.6511C91.5958 58.4404 91.3762 58.2753 91.1248 58.172C90.8734 58.0688 90.5988 58.0308 90.3278 58.0619C90.0569 58.0929 89.7988 58.192 89.5789 58.3493C89.3012 58.5194 89.0691 58.7516 88.9018 59.0265C88.7346 59.3015 88.637 59.6113 88.6171 59.9303V59.9307Z" fill="white"/>
<path d="M112.481 58.8179V58.0272C112.471 57.9578 112.487 57.8873 112.525 57.8283C112.564 57.7692 112.623 57.7253 112.691 57.7046C113.054 57.5249 113.438 57.3873 113.834 57.2945C114.349 57.1967 114.878 57.1867 115.396 57.2651C115.81 57.3231 116.191 57.5175 116.475 57.8159C116.76 58.1143 116.931 58.4987 116.959 58.905C116.994 59.1378 117.014 59.3725 117.019 59.6078V63.4731C117.019 63.7368 117.019 63.7368 116.749 63.7368H116.118C115.997 63.7368 115.937 63.7074 115.968 63.5904V62.8582C115.848 62.8288 115.848 62.9167 115.817 62.9751C115.096 64.0291 113.743 64.0292 112.932 63.7074C112.65 63.6021 112.403 63.4237 112.217 63.1914C112.032 62.9592 111.915 62.6819 111.88 62.3896C111.83 62.088 111.84 61.7798 111.91 61.482C111.967 61.208 112.093 60.9521 112.276 60.7374C112.46 60.5227 112.696 60.3559 112.962 60.2522C113.452 60.0632 113.968 59.9449 114.493 59.9009L115.756 59.7251C115.906 59.6957 115.936 59.6372 115.936 59.5203C115.923 59.3518 115.893 59.1849 115.846 59.0223C115.783 58.7307 115.608 58.4737 115.356 58.3047C115.104 58.1357 114.795 58.0676 114.493 58.1147C113.867 58.1439 113.262 58.347 112.75 58.7001C112.691 58.7005 112.631 58.7885 112.481 58.8179ZM115.938 60.5163C115.397 60.5747 114.916 60.6626 114.406 60.7211C114.127 60.7478 113.853 60.8169 113.595 60.9259C113.387 61.014 113.212 61.162 113.094 61.35C112.975 61.5379 112.918 61.7569 112.932 61.9772C112.945 62.1974 113.027 62.4085 113.167 62.5819C113.307 62.7552 113.499 62.8825 113.715 62.9465C113.94 63.0077 114.176 63.0243 114.407 62.9953C114.639 62.9662 114.863 62.8922 115.064 62.7775C115.266 62.6628 115.442 62.5098 115.582 62.3276C115.722 62.1454 115.823 61.9376 115.879 61.7167C115.944 61.3197 115.963 60.917 115.937 60.5159L115.938 60.5163Z" fill="white"/>
<path d="M104.427 58.5249C103.994 58.2567 103.497 58.1052 102.984 58.0858C102.656 58.0456 102.323 58.0963 102.022 58.2321C101.882 58.2928 101.761 58.3886 101.671 58.5097C101.581 58.6308 101.526 58.773 101.511 58.9217C101.495 59.0704 101.521 59.2204 101.584 59.3564C101.648 59.4925 101.747 59.6097 101.872 59.6962C102.063 59.8112 102.264 59.9092 102.473 59.989C102.804 60.1059 103.104 60.2527 103.435 60.3696C103.645 60.4595 103.846 60.5675 104.036 60.6922C104.246 60.8401 104.418 61.0334 104.538 61.257C104.659 61.4805 104.725 61.7282 104.731 61.9807C104.736 62.2331 104.682 62.4835 104.572 62.7121C104.462 62.9407 104.299 63.1413 104.096 63.2982C103.735 63.5816 103.295 63.7549 102.834 63.7962C102.087 63.9338 101.316 63.8628 100.609 63.5914C100.429 63.5329 100.339 63.445 100.369 63.2402C100.384 62.9768 100.384 62.7128 100.369 62.4494C100.519 62.42 100.579 62.5374 100.669 62.5664C101.344 62.969 102.154 63.0953 102.924 62.9176C103.031 62.9032 103.134 62.8681 103.227 62.8145C103.32 62.7608 103.401 62.6897 103.465 62.6051C103.529 62.5206 103.576 62.4245 103.601 62.3223C103.627 62.2201 103.632 62.1139 103.615 62.0099C103.6 61.9005 103.563 61.7951 103.506 61.6996C103.449 61.6041 103.374 61.5205 103.284 61.4535C103.095 61.3026 102.882 61.1838 102.653 61.1023C102.322 60.9559 101.991 60.8386 101.631 60.6922C101.45 60.6043 101.3 60.5164 101.15 60.4285C100.916 60.289 100.721 60.0951 100.583 59.8641C100.445 59.6331 100.368 59.3724 100.359 59.1052C100.35 58.8381 100.41 58.573 100.532 58.3337C100.654 58.0945 100.836 57.8886 101.06 57.7346C101.503 57.4314 102.022 57.2494 102.562 57.2075C103.1 57.1627 103.642 57.2225 104.155 57.3834C104.336 57.4418 104.396 57.5297 104.366 57.6761C104.402 57.9577 104.423 58.2411 104.427 58.5249Z" fill="white"/>
<path d="M123.09 57.353H123.992C124.173 57.353 124.203 57.2946 124.203 57.1482V56.0063C124.198 55.949 124.213 55.8918 124.246 55.8439C124.279 55.7961 124.327 55.7604 124.383 55.7426C124.654 55.6547 124.924 55.5668 125.255 55.4789V56.7381C125.255 56.943 125.164 57.1772 125.285 57.2946C125.435 57.4409 125.675 57.324 125.886 57.353H126.727C126.847 57.353 126.877 57.3825 126.877 57.4994V58.0559C126.877 58.2022 126.817 58.2317 126.697 58.2317H125.435C125.254 58.2317 125.224 58.2901 125.224 58.4365V61.8639C125.213 62.0321 125.233 62.2009 125.284 62.3619C125.316 62.5259 125.405 62.6741 125.537 62.781C125.669 62.8878 125.834 62.9467 126.006 62.9474C126.147 62.9679 126.29 62.9579 126.427 62.9179C126.56 62.8771 126.69 62.8282 126.817 62.7716V63.3865C126.817 63.6207 126.817 63.6502 126.547 63.7091C126.096 63.8409 125.615 63.8409 125.164 63.7091C124.969 63.6549 124.789 63.5579 124.638 63.4256C124.488 63.2933 124.37 63.1292 124.294 62.9457C124.174 62.627 124.113 62.2899 124.114 61.9502V58.3486C124.114 58.2317 124.054 58.2022 123.934 58.2022H123.152C123.002 58.2022 122.972 58.1438 122.972 58.0264C123.074 57.8168 123.115 57.5839 123.09 57.353Z" fill="white"/>
<path d="M99.1963 62.4484V63.3271C99.1963 63.444 99.1061 63.444 99.046 63.5029C98.7573 63.6569 98.4412 63.7562 98.1144 63.7956C97.6555 63.8542 97.1907 63.8542 96.7317 63.7956C96.1339 63.6923 95.585 63.4071 95.1639 62.981C94.7427 62.5549 94.471 62.0098 94.3876 61.4238C94.2264 60.637 94.3101 59.8212 94.628 59.0811C94.8337 58.5825 95.1744 58.1476 95.6137 57.8227C96.053 57.4979 96.5746 57.2952 97.1228 57.2364C97.7491 57.1478 98.388 57.2081 98.9852 57.4122C99.06 57.4259 99.1265 57.4669 99.1713 57.5269C99.216 57.5869 99.2354 57.6612 99.2257 57.7347C99.2106 57.9883 99.2106 58.2425 99.2257 58.496C99.1264 58.4811 99.033 58.4408 98.955 58.3791C98.3978 58.075 97.7452 57.9811 97.1216 58.1154C96.6966 58.2167 96.3134 58.4421 96.0233 58.7613C95.7333 59.0805 95.5502 59.4783 95.4984 59.9017C95.383 60.4255 95.4036 60.969 95.5584 61.4831C95.8895 62.5666 96.8509 63.1521 98.1132 62.9472C98.4339 62.8868 98.7399 62.7676 99.015 62.596C99.0781 62.55 99.1386 62.5007 99.1963 62.4484Z" fill="white"/>
<path d="M110.768 62.4485V63.2683C110.768 63.3856 110.737 63.4441 110.648 63.4731C109.716 63.9711 107.823 64.1183 106.74 62.9751C106.313 62.528 106.03 61.9677 105.929 61.3647C105.774 60.575 105.869 59.7584 106.199 59.0219C106.406 58.5379 106.746 58.1183 107.18 57.8086C107.615 57.4989 108.128 57.311 108.664 57.2651C109.29 57.1766 109.929 57.2369 110.526 57.4409C110.601 57.4546 110.668 57.4956 110.712 57.5556C110.757 57.6156 110.777 57.69 110.767 57.7635C110.752 58.0365 110.752 58.3102 110.767 58.5832C110.663 58.5312 110.562 58.4724 110.466 58.4074C110.039 58.1663 109.545 58.0638 109.054 58.1147C108.597 58.1498 108.162 58.3201 107.808 58.6028C107.453 58.8855 107.196 59.2669 107.07 59.6961C106.895 60.268 106.885 60.8757 107.04 61.453C107.4 62.9171 108.753 63.2675 109.896 62.9449C110.195 62.795 110.486 62.6293 110.768 62.4485Z" fill="white"/>
<path d="M118.972 57.382C119.243 57.3526 119.513 57.382 119.784 57.3526C119.865 57.3495 119.946 57.3595 120.024 57.382V58.5259C120.111 58.446 120.173 58.3449 120.205 58.2332C120.31 58.0084 120.464 57.8083 120.656 57.6467C120.848 57.485 121.073 57.3654 121.317 57.2961C121.602 57.2279 121.899 57.2179 122.188 57.2667C122.279 57.2961 122.369 57.3251 122.369 57.4425V58.3501C122.202 58.2831 122.031 58.2244 121.858 58.1743C121.626 58.1247 121.385 58.1396 121.162 58.2172C120.939 58.2949 120.742 58.4322 120.595 58.6134C120.232 59.0425 120.031 59.5798 120.024 60.136C119.994 60.7215 120.024 61.2779 120.024 61.8638V63.4743C120.024 63.6501 119.964 63.6791 119.814 63.6791H119.123C119.003 63.6791 118.942 63.6497 118.973 63.5328V57.5872C118.942 57.5582 118.972 57.4699 118.972 57.382Z" fill="white"/>
<path d="M128.651 63.8547C128.558 63.8591 128.464 63.845 128.377 63.8131C128.289 63.7812 128.209 63.7322 128.141 63.6692C128.074 63.6062 128.02 63.5304 127.984 63.4465C127.947 63.3626 127.929 63.2724 127.93 63.1813C127.925 63.0875 127.94 62.9937 127.973 62.9055C128.006 62.8174 128.057 62.7366 128.123 62.6679C128.189 62.5993 128.268 62.5442 128.356 62.5058C128.444 62.4675 128.539 62.4468 128.635 62.4448C128.732 62.4428 128.828 62.4597 128.917 62.4944C129.007 62.5291 129.088 62.5809 129.157 62.6468C129.226 62.7127 129.28 62.7914 129.317 62.8781C129.354 62.9649 129.373 63.0579 129.372 63.1519C129.37 63.3375 129.293 63.5148 129.158 63.6461C129.023 63.7773 128.841 63.8522 128.651 63.8547Z" fill="white"/>
</svg>
