<svg width="386" height="28" viewBox="0 0 386 28" fill="none" xmlns="http://www.w3.org/2000/svg">
<rect width="43.8623" height="27.1131" rx="2.34612" fill="white"/>
<rect x="0.129378" y="0.129378" width="43.6035" height="26.8544" rx="2.21675" stroke="#424242" stroke-opacity="0.4" stroke-width="0.258756"/>
<path d="M32.1517 11.8553C32.0143 12.7485 31.3349 12.7485 30.6798 12.7485H30.3043L30.5682 11.0784C30.5755 11.0297 30.6001 10.9853 30.6375 10.9532C30.6749 10.9211 30.7226 10.9036 30.7719 10.9038H30.9437C31.3904 10.9038 31.8133 10.9038 32.0305 11.161C32.1625 11.3139 32.2024 11.5413 32.149 11.856M31.8715 9.5166H29.3867C29.3043 9.5169 29.2247 9.54657 29.1621 9.60027C29.0996 9.65397 29.0583 9.72819 29.0456 9.80961L28.0414 16.201C28.0333 16.256 28.0466 16.312 28.0786 16.3574C28.0946 16.38 28.115 16.3992 28.1386 16.4137C28.1623 16.4282 28.1886 16.4378 28.216 16.442H29.5193C29.5765 16.4417 29.6318 16.4212 29.6753 16.384C29.7188 16.3468 29.7477 16.2954 29.7568 16.2389L30.0424 14.4254C30.0695 14.2562 30.2116 14.1317 30.3807 14.1317H31.1684C32.802 14.1317 33.7433 13.3386 33.9889 11.7632C34.0999 11.0757 33.9889 10.5364 33.6742 10.1561C33.3203 9.74127 32.6964 9.5166 31.8715 9.5166Z" fill="#009CDE"/>
<path d="M14.4617 11.8553C14.3243 12.7485 13.6456 12.7485 12.9865 12.7485H12.6197L12.8816 11.0784C12.8895 11.0296 12.9145 10.9852 12.9522 10.9532C12.9899 10.9212 13.0378 10.9037 13.0873 10.9038H13.2565C13.7058 10.9038 14.1294 10.9038 14.346 11.161C14.4752 11.3139 14.5151 11.5413 14.4651 11.856M14.1741 9.5166H11.694C11.6116 9.5169 11.532 9.54657 11.4694 9.60027C11.4069 9.65397 11.3656 9.72819 11.3529 9.80961L10.3514 16.2011C10.346 16.2282 10.3465 16.2562 10.3528 16.2832C10.3591 16.3101 10.3711 16.3354 10.3879 16.3574C10.4035 16.38 10.4235 16.3992 10.4468 16.4137C10.4701 16.4283 10.4961 16.4379 10.5233 16.442H11.744C11.9132 16.442 12.0553 16.3174 12.0824 16.1483L12.3544 14.4247C12.3815 14.2555 12.5236 14.1317 12.6955 14.1317H13.4784C15.114 14.1344 16.0499 13.3386 16.3009 11.766C16.4119 11.0784 16.3009 10.5391 15.9842 10.1588C15.6269 9.74127 15.0057 9.52134 14.1788 9.52134M19.9335 14.15C19.8877 14.4713 19.7257 14.7648 19.4782 14.9748C19.2307 15.1848 18.9147 15.2968 18.5902 15.2895C18.4415 15.304 18.2914 15.2822 18.153 15.226C18.0145 15.1697 17.8918 15.0807 17.7953 14.9666C17.6988 14.8524 17.6314 14.7166 17.599 14.5707C17.5665 14.4248 17.57 14.2733 17.609 14.129C17.7024 13.4658 18.2708 12.9718 18.9394 12.9786C19.0871 12.9707 19.2346 12.9958 19.3713 13.0521C19.5081 13.1084 19.6305 13.1945 19.7298 13.3041C19.9172 13.5423 19.991 13.8515 19.9328 14.1473M21.588 11.8262H20.3984C20.3493 11.8265 20.302 11.8443 20.2648 11.8762C20.2277 11.9082 20.203 11.9523 20.1954 12.0008L20.1419 12.3344L20.0607 12.2153C19.8035 11.8397 19.2277 11.7159 18.6565 11.7159C17.3505 11.7159 16.2245 12.7147 16.0052 14.1155C15.8861 14.8138 16.0526 15.4824 16.4491 15.9473C16.8112 16.3756 17.3268 16.5556 17.9453 16.5556C18.5611 16.5611 19.1566 16.3147 19.587 15.8708L19.5342 16.2038C19.5261 16.2584 19.5392 16.3141 19.5708 16.3594C19.5866 16.3815 19.6068 16.4003 19.63 16.4144C19.6533 16.4286 19.6792 16.438 19.7061 16.442H20.8084C20.9776 16.442 21.1224 16.3174 21.1488 16.151L21.7917 12.0671C21.7996 12.0124 21.7863 11.9567 21.7545 11.9114C21.7208 11.8671 21.6718 11.837 21.6171 11.8269H21.5853" fill="#003087"/>
<path d="M37.6196 14.1494C37.5744 14.4704 37.4131 14.7638 37.1662 14.9738C36.9192 15.1838 36.6038 15.296 36.2797 15.289C36.1308 15.3038 35.9805 15.2823 35.8418 15.2262C35.7031 15.1701 35.58 15.0811 35.4833 14.9669C35.3866 14.8528 35.319 14.7168 35.2865 14.5707C35.2539 14.4247 35.2574 14.2729 35.2965 14.1284C35.3885 13.4626 35.9596 12.9713 36.6262 12.9781C36.9239 12.9625 37.2149 13.0816 37.4186 13.3035C37.6067 13.5417 37.6778 13.851 37.6196 14.1467M39.2748 11.8256H38.0845C38.0353 11.8258 37.9879 11.8435 37.9505 11.8755C37.9132 11.9075 37.8885 11.9517 37.8808 12.0002L37.828 12.3338L37.7461 12.2147C37.489 11.8392 36.9138 11.7153 36.3427 11.7153C35.0339 11.7153 33.9106 12.7141 33.694 14.1149C33.5749 14.8133 33.7414 15.4818 34.1353 15.9467C34.4919 16.3751 35.0129 16.5551 35.6308 16.5551C36.2466 16.5605 36.8421 16.3142 37.2751 15.8703L37.2224 16.2032C37.2173 16.23 37.2178 16.2575 37.2236 16.2842C37.2294 16.3108 37.2406 16.336 37.2564 16.3582C37.2722 16.3805 37.2923 16.3993 37.3155 16.4136C37.3387 16.4279 37.3646 16.4373 37.3915 16.4414H38.4946C38.6637 16.4414 38.8086 16.3169 38.8349 16.1504L39.4778 12.0665C39.4857 12.0118 39.4724 11.9561 39.4406 11.9109C39.4075 11.866 39.3582 11.8357 39.3032 11.8263H39.2714" fill="#009CDE"/>
<path d="M27.9126 11.8274H26.7256C26.6691 11.8276 26.6136 11.8416 26.5638 11.8683C26.514 11.895 26.4715 11.9334 26.4401 11.9803L24.7876 14.4124L24.0906 12.0703C24.069 11.9992 24.0251 11.9369 23.9654 11.8926C23.9057 11.8484 23.8333 11.8246 23.759 11.8247H22.5862C22.5532 11.8248 22.5207 11.8327 22.4914 11.8478C22.4621 11.863 22.4368 11.8849 22.4176 11.9117C22.3984 11.9386 22.3859 11.9696 22.3811 12.0022C22.3763 12.0349 22.3794 12.0682 22.39 12.0994L23.7042 15.9749L22.4699 17.7276C22.438 17.7728 22.4247 17.8285 22.4326 17.8832C22.4417 17.9314 22.4673 17.9748 22.505 18.0062C22.5426 18.0376 22.59 18.0548 22.639 18.0551H23.826C23.8816 18.0552 23.9364 18.0418 23.9857 18.016C24.035 17.9902 24.0773 17.9527 24.1088 17.9069L28.079 12.1495C28.0951 12.1273 28.1064 12.1021 28.1125 12.0754C28.1185 12.0487 28.1191 12.0211 28.1141 11.9941C28.1092 11.9672 28.0989 11.9415 28.0838 11.9187C28.0687 11.8959 28.0491 11.8763 28.0262 11.8612C27.9921 11.8374 27.9515 11.8247 27.9099 11.8247" fill="#003087"/>
<path d="M40.6723 9.69878L39.6546 16.2019C39.6467 16.2566 39.66 16.3123 39.6918 16.3575C39.7075 16.3798 39.7275 16.3988 39.7507 16.4133C39.7738 16.4278 39.7995 16.4376 39.8265 16.4421H40.8841C41.0533 16.4421 41.1954 16.3176 41.2225 16.1484L42.2267 9.75969C42.2319 9.73259 42.2313 9.70469 42.2249 9.67785C42.2185 9.65102 42.2064 9.62586 42.1895 9.60405C42.174 9.58171 42.154 9.56283 42.1308 9.54862C42.1077 9.53441 42.0818 9.52517 42.0548 9.52149H40.8787C40.8292 9.52118 40.7811 9.5386 40.7433 9.57062C40.7054 9.60264 40.6802 9.64714 40.6723 9.69608" fill="#009CDE"/>
<path d="M4.08148 10.4792C4.09466 10.3954 4.1372 10.3189 4.20153 10.2635C4.26585 10.2081 4.34777 10.1773 4.43267 10.1767H6.65636C6.90225 10.1767 7.14707 10.1933 7.38868 10.2312C7.51216 10.2521 7.6335 10.2793 7.75484 10.3125C7.89008 10.352 8.02371 10.4044 8.14933 10.4712C8.25998 9.75707 8.14933 9.27278 7.76499 8.83178C7.3411 8.34749 6.57885 8.14062 5.60011 8.14062H2.75743C2.66045 8.14078 2.56673 8.17563 2.4932 8.23886C2.41968 8.30209 2.3712 8.38954 2.35652 8.4854L1.17519 16.0106C1.16452 16.0751 1.17985 16.1412 1.21782 16.1944C1.2558 16.2476 1.31332 16.2836 1.37778 16.2945H3.16902L3.60734 13.4882L4.08148 10.4792Z" fill="#003087"/>
<path d="M8.15309 10.4707C8.1424 10.5268 8.13438 10.583 8.12369 10.6375C7.74577 12.5672 6.46395 13.2353 4.83093 13.2353H3.99758C3.9002 13.2354 3.80613 13.2707 3.73281 13.3348C3.65948 13.3989 3.61188 13.4874 3.59882 13.5839L3.17279 16.2983L3.05198 17.0691C3.0471 17.0969 3.04789 17.1255 3.05432 17.1531C3.06075 17.1806 3.07268 17.2066 3.0894 17.2294C3.12308 17.2754 3.17279 17.3048 3.22731 17.3149H4.73899C4.82357 17.3146 4.90528 17.2842 4.96952 17.2292C5.03375 17.1741 5.07633 17.0981 5.08965 17.0145L5.10461 16.937L5.38418 15.1645L5.40289 15.0704C5.41591 14.9867 5.45848 14.9103 5.52289 14.8552C5.58731 14.8001 5.66931 14.7699 5.75408 14.77H5.97538C7.40527 14.77 8.52513 14.1852 8.85227 12.4961C8.99018 11.7921 8.91909 11.2014 8.55827 10.7882C8.44367 10.6586 8.30635 10.551 8.15309 10.4707Z" fill="#009CDE"/>
<path d="M7.75354 10.312C7.6947 10.2956 7.63553 10.2805 7.57607 10.2666C7.51362 10.2534 7.45088 10.2417 7.38791 10.2313C7.14538 10.1944 6.90038 10.1762 6.65506 10.1768H4.43137C4.34638 10.1771 4.26429 10.2077 4.1999 10.2632C4.13551 10.3187 4.09305 10.3953 4.08018 10.4793L3.60658 13.4888L3.59375 13.5759C3.60853 13.4807 3.65683 13.3939 3.72995 13.3312C3.80306 13.2685 3.89618 13.2339 3.99252 13.2338H4.82586C6.46102 13.2338 7.74071 12.5656 8.11649 10.6338C8.12718 10.5777 8.1352 10.5216 8.14589 10.4692C8.04655 10.4172 7.94324 10.3732 7.83693 10.3377L7.75354 10.3104" fill="#012169"/>
<rect x="49.2695" width="43.8623" height="27.1131" rx="2.34612" fill="white"/>
<rect x="49.3989" y="0.129378" width="43.6035" height="26.8544" rx="2.21675" stroke="#424242" stroke-opacity="0.4" stroke-width="0.258756"/>
<path d="M60.3912 7.68008C59.9787 8.15555 59.3188 8.53057 58.6589 8.477C58.5764 7.8341 58.8995 7.15103 59.2775 6.72913C59.69 6.24026 60.4118 5.89202 60.9961 5.86523C61.0648 6.53492 60.7967 7.19121 60.3912 7.68008ZM60.9892 8.60424C60.0337 8.55066 59.2157 9.13329 58.762 9.13329C58.3014 9.13329 57.6071 8.63103 56.8509 8.64442C55.8679 8.65781 54.9537 9.20026 54.4518 10.0641C53.4207 11.7919 54.1838 14.3501 55.1805 15.7565C55.6686 16.4529 56.2529 17.2164 57.0228 17.1896C57.7515 17.1628 58.0402 16.7275 58.9201 16.7275C59.8068 16.7275 60.0612 17.1896 60.8311 17.1762C61.6285 17.1628 62.1303 16.4797 62.6184 15.7832C63.1752 14.993 63.4021 14.2229 63.4158 14.1827C63.4021 14.1693 61.876 13.6001 61.8622 11.8857C61.8485 10.4526 63.0652 9.76949 63.1202 9.72931C62.4328 8.73818 61.3604 8.63103 60.9892 8.60424ZM66.5092 6.66216V17.1025H68.1727V13.5331H70.4756C72.5791 13.5331 74.0571 12.1268 74.0571 10.0909C74.0571 8.0551 72.6066 6.66216 70.5306 6.66216H66.5092ZM68.1727 8.02831H70.0906C71.5342 8.02831 72.3591 8.77836 72.3591 10.0976C72.3591 11.4169 71.5342 12.1737 70.0838 12.1737H68.1727V8.02831ZM77.0955 17.1829C78.1403 17.1829 79.1096 16.6672 79.5495 15.8502H79.5839V17.1025H81.1237V11.9058C81.1237 10.399 79.8864 9.42795 77.9822 9.42795C76.2156 9.42795 74.9095 10.4124 74.8613 11.7651H76.3599C76.4837 11.1222 77.0955 10.7003 77.9341 10.7003C78.9515 10.7003 79.522 11.1624 79.522 12.0129V12.5889L77.446 12.7094C75.5144 12.8232 74.4695 13.5934 74.4695 14.9327C74.4695 16.2855 75.5488 17.1829 77.0955 17.1829ZM77.5423 15.944C76.6555 15.944 76.0918 15.5288 76.0918 14.8926C76.0918 14.2363 76.6349 13.8546 77.6729 13.7943L79.522 13.6804V14.2698C79.522 15.2475 78.6696 15.944 77.5423 15.944ZM83.1791 19.942C84.8014 19.942 85.5645 19.3393 86.2313 17.511L89.1528 9.5284H87.4617L85.5026 15.6962H85.4682L83.5091 9.5284H81.7699L84.5883 17.1293L84.4371 17.5914C84.1828 18.3749 83.7703 18.6763 83.0348 18.6763C82.9042 18.6763 82.6498 18.6629 82.5467 18.6495V19.9018C82.6429 19.9286 83.0554 19.942 83.1791 19.942Z" fill="black"/>
<rect x="98.5371" width="43.8623" height="27.1131" rx="2.34612" fill="white"/>
<rect x="98.6665" y="0.129378" width="43.6035" height="26.8544" rx="2.21675" stroke="#424242" stroke-opacity="0.4" stroke-width="0.258756"/>
<g clip-path="url(#clip0_1546_57041)">
<path d="M120.069 13.5606V17.4739H118.754V7.80973H122.241C122.657 7.80152 123.071 7.87123 123.458 8.01482C123.846 8.15842 124.199 8.37307 124.498 8.64637C124.801 8.90309 125.041 9.21792 125.204 9.56971C125.367 9.9215 125.448 10.3021 125.442 10.6859C125.45 11.0718 125.37 11.4549 125.208 11.8089C125.045 12.163 124.803 12.4796 124.498 12.7371C123.889 13.2861 123.136 13.5603 122.241 13.5598H120.069V13.5606ZM120.069 8.99954V12.3731H122.273C122.515 12.3799 122.756 12.3389 122.98 12.2529C123.204 12.1668 123.406 12.0376 123.574 11.8734C123.741 11.7199 123.874 11.5363 123.965 11.3335C124.056 11.1307 124.102 10.9127 124.102 10.6925C124.102 10.4723 124.056 10.2543 123.965 10.0515C123.874 9.84864 123.741 9.66504 123.574 9.51155C123.408 9.34392 123.206 9.21151 122.982 9.12311C122.758 9.0347 122.516 8.99232 122.273 8.99877H120.069V8.99954Z" fill="#5F6368"/>
<path d="M128.472 10.6455C129.444 10.6455 130.211 10.8907 130.774 11.3811C131.336 11.8716 131.617 12.544 131.616 13.3983V17.4736H130.359V16.556H130.302C129.757 17.3117 129.033 17.6895 128.13 17.6895C127.358 17.6895 126.713 17.4736 126.193 17.0418C125.944 16.8436 125.745 16.5954 125.61 16.3152C125.475 16.0351 125.409 15.7301 125.414 15.4225C125.414 14.7382 125.688 14.1941 126.236 13.7901C126.784 13.386 127.515 13.1835 128.429 13.1824C129.21 13.1824 129.853 13.3174 130.358 13.5873V13.3035C130.359 13.0938 130.311 12.8864 130.218 12.6963C130.124 12.5062 129.986 12.3383 129.815 12.2047C129.467 11.9085 129.014 11.7469 128.546 11.752C127.812 11.752 127.23 12.0445 126.803 12.6295L125.645 11.941C126.282 11.0773 127.224 10.6455 128.472 10.6455ZM126.772 15.4495C126.771 15.6075 126.81 15.7634 126.886 15.9042C126.961 16.045 127.072 16.1667 127.208 16.2591C127.498 16.4751 127.859 16.5895 128.229 16.583C128.784 16.5821 129.316 16.3736 129.708 16.0031C130.143 15.616 130.361 15.1618 130.361 14.6406C129.951 14.3321 129.38 14.1779 128.646 14.1779C128.112 14.1779 127.667 14.2995 127.311 14.5426C126.95 14.7894 126.772 15.0894 126.772 15.4495Z" fill="#5F6368"/>
<path d="M138.835 10.8618L134.445 20.3887H133.088L134.717 17.0553L131.83 10.8618H133.259L135.345 15.6118H135.374L137.403 10.8618H138.835Z" fill="#5F6368"/>
<path d="M114.757 12.7173C114.758 12.3389 114.724 11.9612 114.656 11.5884H109.111V13.7266H112.287C112.222 14.0681 112.084 14.3937 111.883 14.6837C111.681 14.9736 111.419 15.222 111.113 15.4138V16.8018H113.008C114.118 15.8356 114.757 14.4067 114.757 12.7173Z" fill="#4285F4"/>
<path d="M109.108 18.1427C110.695 18.1427 112.031 17.6507 113.005 16.8025L111.11 15.4145C110.582 15.7523 109.903 15.945 109.108 15.945C107.575 15.945 106.273 14.9688 105.808 13.6533H103.855V15.0837C104.345 16.0032 105.095 16.7762 106.023 17.3164C106.95 17.8565 108.019 18.1426 109.108 18.1427Z" fill="#34A853"/>
<path d="M105.809 13.6532C105.563 12.9639 105.563 12.2174 105.809 11.528V10.0977H103.857C103.445 10.8712 103.23 11.7249 103.23 12.5906C103.23 13.4563 103.445 14.3101 103.857 15.0836L105.809 13.6532Z" fill="#FBBC04"/>
<path d="M109.108 9.23608C109.947 9.22315 110.757 9.5223 111.364 10.0689L113.042 8.48426C111.978 7.54049 110.568 7.02235 109.108 7.03845C108.019 7.0385 106.95 7.32457 106.023 7.86473C105.095 8.40489 104.345 9.17788 103.855 10.0974L105.808 11.5278C106.273 10.2123 107.575 9.23608 109.108 9.23608Z" fill="#EA4335"/>
</g>
<rect x="244.914" width="43.8623" height="27.1131" rx="2.34612" fill="white"/>
<rect x="245.043" y="0.129378" width="43.6035" height="26.8544" rx="2.21675" stroke="#424242" stroke-opacity="0.4" stroke-width="0.258756"/>
<path d="M257.286 21.7585H256.906V19.9852H257.279V20.2012C257.279 20.2012 257.606 19.9372 257.801 19.9405C258.179 19.9469 258.405 20.2683 258.405 20.2683C258.405 20.2683 258.588 19.9405 259.001 19.9405C259.612 19.9405 259.702 20.4993 259.702 20.4993V21.751H259.337V20.6483C259.337 20.6483 259.338 20.313 258.941 20.313C258.532 20.313 258.494 20.6483 258.494 20.6483V21.751H258.114V20.6408C258.114 20.6408 258.077 20.2907 257.734 20.2907C257.287 20.2907 257.279 20.6483 257.279 20.6483L257.286 21.7585Z" fill="black"/>
<path d="M268.85 19.9405C268.656 19.9372 268.328 20.2012 268.328 20.2012V19.9856H267.955V21.7585H268.336L268.328 20.6485C268.328 20.6485 268.337 20.2915 268.783 20.2915C268.866 20.2915 268.93 20.3116 268.981 20.3425V20.3411L269.105 19.9958C269.03 19.9644 268.945 19.9421 268.85 19.9405Z" fill="black"/>
<path d="M274.206 19.9405C274.011 19.9372 273.684 20.2012 273.684 20.2012V19.9856H273.311V21.7585H273.691L273.684 20.6485C273.684 20.6485 273.692 20.2915 274.138 20.2915C274.221 20.2915 274.286 20.3116 274.337 20.3425V20.3411L274.461 19.9958C274.386 19.9644 274.301 19.9421 274.206 19.9405Z" fill="black"/>
<path d="M260.93 19.9336C260.361 19.9336 260.06 20.4447 260.059 20.8718C260.057 21.3095 260.401 21.8143 260.946 21.8143C261.264 21.8143 261.525 21.5798 261.525 21.5798L261.525 21.7604H261.899V19.9853H261.523V20.2089C261.523 20.2089 261.278 19.9336 260.93 19.9336ZM261.003 20.2949C261.309 20.2949 261.557 20.5607 261.557 20.8878C261.557 21.2149 261.309 21.4793 261.003 21.4793C260.697 21.4793 260.451 21.2149 260.451 20.8878C260.451 20.5607 260.697 20.2949 261.003 20.2949Z" fill="black"/>
<path d="M271.846 19.9336C271.277 19.9336 270.976 20.4447 270.975 20.8718C270.973 21.3095 271.317 21.8143 271.862 21.8143C272.18 21.8143 272.441 21.5798 272.441 21.5798L272.441 21.7604H272.815V19.9853H272.439V20.2089C272.439 20.2089 272.194 19.9336 271.846 19.9336ZM271.919 20.2949C272.225 20.2949 272.473 20.5607 272.473 20.8878C272.473 21.2149 272.225 21.4793 271.919 21.4793C271.613 21.4793 271.367 21.2149 271.367 20.8878C271.367 20.5607 271.613 20.2949 271.919 20.2949Z" fill="black"/>
<path d="M275.438 19.9341C274.869 19.9341 274.568 20.4453 274.566 20.8723C274.565 21.31 274.909 21.8149 275.454 21.8149C275.772 21.8149 276.033 21.5803 276.033 21.5803L276.032 21.761H276.407V19.2852H276.031V20.2095C276.031 20.2095 275.786 19.9341 275.438 19.9341ZM275.511 20.2954C275.817 20.2954 276.065 20.5612 276.065 20.8883C276.065 21.2155 275.817 21.4798 275.511 21.4798C275.205 21.4798 274.959 21.2155 274.959 20.8883C274.959 20.5612 275.205 20.2954 275.511 20.2954Z" fill="black"/>
<path d="M263.04 21.8187C262.653 21.8187 262.295 21.5802 262.295 21.5802L262.459 21.3269C262.459 21.3269 262.798 21.4834 263.04 21.4834C263.198 21.4834 263.462 21.4325 263.465 21.2748C263.469 21.1081 263.022 21.0587 263.022 21.0587C263.022 21.0587 262.355 21.0496 262.355 20.4999C262.355 20.1541 262.688 19.9336 263.115 19.9336C263.362 19.9336 263.823 20.1497 263.823 20.1497L263.637 20.4403C263.637 20.4403 263.281 20.298 263.093 20.2912C262.934 20.2855 262.742 20.3615 262.742 20.4999C262.742 20.8758 263.853 20.4706 263.853 21.2301C263.853 21.7283 263.401 21.8187 263.04 21.8187Z" fill="black"/>
<path d="M264.473 19.4717V19.9874H264.143V20.3603H264.473V21.2519C264.473 21.2519 264.444 21.855 265.093 21.855C265.272 21.855 265.623 21.7224 265.623 21.7224L265.473 21.3349C265.473 21.3349 265.334 21.454 265.176 21.45C264.876 21.4424 264.884 21.2504 264.884 21.2504V20.3603H265.503V19.9874H264.884V19.4717H264.473Z" fill="black"/>
<path d="M266.725 19.9565C266.115 19.9565 265.81 20.4588 265.813 20.8947C265.815 21.343 266.09 21.8475 266.761 21.8475C267.049 21.8475 267.452 21.5954 267.452 21.5954L267.279 21.2939C267.279 21.2939 267.003 21.4891 266.761 21.4891C266.277 21.4891 266.245 21.0156 266.245 21.0156H267.543C267.543 21.0156 267.639 19.9565 266.725 19.9565ZM266.67 20.3047C266.684 20.3039 266.699 20.3047 266.715 20.3047C267.171 20.3047 267.168 20.7359 267.168 20.7359H266.245C266.245 20.7359 266.224 20.3301 266.67 20.3047Z" fill="black"/>
<path d="M270.583 21.2879L270.757 21.6357C270.757 21.6357 270.482 21.8148 270.172 21.8148C269.531 21.8148 269.176 21.3329 269.176 20.877C269.176 20.1604 269.742 19.9497 270.125 19.9497C270.472 19.9497 270.773 20.1499 270.773 20.1499L270.578 20.4976C270.578 20.4976 270.46 20.3132 270.114 20.3132C269.769 20.3132 269.587 20.6106 269.587 20.8928C269.587 21.209 269.799 21.4776 270.119 21.4776C270.371 21.4776 270.583 21.2879 270.583 21.2879Z" fill="black"/>
<path d="M277.191 21.5156C277.138 21.5169 277.095 21.5344 277.061 21.568C277.027 21.6016 277.009 21.6437 277.008 21.6943C277.009 21.7444 277.027 21.7864 277.061 21.8202C277.095 21.854 277.138 21.8716 277.191 21.8729C277.242 21.8716 277.285 21.854 277.319 21.8202C277.354 21.7864 277.371 21.7444 277.373 21.6943C277.371 21.6437 277.354 21.6016 277.32 21.568C277.286 21.5344 277.243 21.5169 277.191 21.5156ZM277.191 21.8335C277.151 21.8325 277.118 21.819 277.092 21.7928C277.066 21.7666 277.052 21.7338 277.051 21.6943C277.052 21.6546 277.066 21.6218 277.092 21.5958C277.118 21.5699 277.151 21.5564 277.191 21.5555C277.23 21.5564 277.263 21.5699 277.289 21.5958C277.315 21.6218 277.328 21.6546 277.329 21.6943C277.328 21.7338 277.315 21.7666 277.289 21.7928C277.263 21.819 277.23 21.8325 277.191 21.8335ZM277.201 21.6106H277.125V21.7766H277.16V21.7144H277.176L277.227 21.7766H277.269L277.215 21.714C277.232 21.7119 277.245 21.7064 277.254 21.6975C277.263 21.6887 277.268 21.6774 277.268 21.6636C277.268 21.6472 277.262 21.6344 277.251 21.625C277.239 21.6156 277.223 21.6108 277.201 21.6106ZM277.201 21.6417C277.211 21.6417 277.218 21.6436 277.223 21.6473C277.229 21.6509 277.232 21.6564 277.232 21.6636C277.232 21.6711 277.229 21.6767 277.223 21.6804C277.218 21.6841 277.211 21.686 277.201 21.686H277.16V21.6417L277.201 21.6417Z" fill="black"/>
<path fill-rule="evenodd" clip-rule="evenodd" d="M277.461 11.4016C277.461 15.107 274.461 18.1108 270.761 18.1108C267.06 18.1108 264.061 15.107 264.061 11.4016C264.061 7.69619 267.06 4.69238 270.761 4.69238C274.461 4.69238 277.461 7.69619 277.461 11.4016Z" fill="#F79F1A"/>
<path fill-rule="evenodd" clip-rule="evenodd" d="M269.197 11.4016C269.197 15.107 266.197 18.1108 262.497 18.1108C258.797 18.1108 255.797 15.107 255.797 11.4016C255.797 7.69619 258.797 4.69238 262.497 4.69238C266.197 4.69238 269.197 7.69619 269.197 11.4016Z" fill="#EA001B"/>
<path fill-rule="evenodd" clip-rule="evenodd" d="M266.627 6.11963C265.064 7.34786 264.061 9.25647 264.061 11.4005C264.061 13.5446 265.064 15.4546 266.627 16.6829C268.191 15.4546 269.194 13.5446 269.194 11.4005C269.194 9.25647 268.191 7.34786 266.627 6.11963Z" fill="#FF5F01"/>
<path d="M277.45 14.9626V14.7231H277.387L277.315 14.8878L277.243 14.7231H277.181V14.9626H277.225V14.782L277.292 14.9377H277.338L277.406 14.7816V14.9626H277.45ZM277.054 14.9626V14.764H277.134V14.7236H276.93V14.764H277.01V14.9626H277.054Z" fill="#F79F1A"/>
<rect x="196.359" width="43.8623" height="27.1131" rx="2.34612" fill="white"/>
<rect x="196.489" y="0.129378" width="43.6035" height="26.8544" rx="2.21675" stroke="#424242" stroke-opacity="0.4" stroke-width="0.258756"/>
<path fill-rule="evenodd" clip-rule="evenodd" d="M214.215 7.24351L212.352 18.6936H215.333L217.196 7.24351H214.215ZM209.844 7.24351L207.002 15.1187L206.666 13.4229L206.666 13.4235L206.592 13.0434C206.248 12.3021 205.452 10.8933 203.947 9.69092C203.503 9.33552 203.054 9.03222 202.621 8.77314L205.204 18.6936H208.31L213.053 7.24351H209.844ZM221.478 10.4223C221.478 9.12773 224.381 9.29408 225.657 9.997L226.082 7.53784C226.082 7.53784 224.769 7.03857 223.401 7.03857C221.922 7.03857 218.409 7.68552 218.409 10.829C218.409 13.7875 222.532 13.8242 222.532 15.3774C222.532 16.9306 218.834 16.6531 217.613 15.6733L217.17 18.2437C217.17 18.2437 218.501 18.8906 220.535 18.8906C222.569 18.8906 225.638 17.8369 225.638 14.9707C225.638 11.9937 221.478 11.7165 221.478 10.4223ZM233.642 7.24351H231.245C230.139 7.24351 229.869 8.09681 229.869 8.09681L225.424 18.6936H228.531L229.152 16.9929H232.942L233.291 18.6936H236.029L233.642 7.24351ZM230.011 14.6432L231.578 10.3583L232.459 14.6432H230.011Z" fill="#005BAC"/>
<path fill-rule="evenodd" clip-rule="evenodd" d="M205.704 8.32196C205.704 8.32196 205.581 7.28857 204.264 7.28857H199.478L199.422 7.48279C199.422 7.48279 201.722 7.95172 203.929 9.70859C206.038 11.3877 206.726 13.4809 206.726 13.4809L205.704 8.32196Z" fill="#F6AC1D"/>
<rect x="293.469" width="43.8623" height="27.1131" rx="2.34612" fill="white"/>
<rect x="293.598" y="0.129378" width="43.6035" height="26.8544" rx="2.21675" stroke="#424242" stroke-opacity="0.4" stroke-width="0.258756"/>
<path d="M334.621 15.0134C334.316 15.0151 334.023 15.1387 333.808 15.3569C333.593 15.5751 333.473 15.8702 333.474 16.1774C333.474 16.8106 333.979 17.3347 334.616 17.3413C334.923 17.3413 335.218 17.2187 335.435 17.0004C335.652 16.7821 335.774 16.4861 335.774 16.1774C335.774 15.8686 335.652 15.5726 335.435 15.3543C335.218 15.136 334.923 15.0134 334.616 15.0134H334.621ZM330.857 14.1141C330.857 13.2361 330.117 12.5244 329.207 12.5244C328.296 12.5244 327.558 13.2361 327.558 14.1141C327.558 14.9921 328.296 15.7038 329.207 15.7038C330.117 15.7038 330.857 14.9921 330.857 14.1141ZM330.867 11.0279H332.687V17.2057H330.872V16.8106C330.342 17.1796 329.712 17.3756 329.067 17.3719C328.641 17.3719 328.22 17.2876 327.827 17.1237C327.434 16.9599 327.076 16.7197 326.776 16.417C326.475 16.1142 326.237 15.7549 326.075 15.3595C325.912 14.9641 325.829 14.5405 325.83 14.1128C325.83 13.6857 325.914 13.2628 326.077 12.8683C326.239 12.4738 326.478 12.1153 326.778 11.8134C327.079 11.5115 327.436 11.272 327.828 11.1087C328.221 10.9454 328.642 10.8614 329.067 10.8616C329.709 10.8563 330.339 11.0532 330.872 11.4216L330.867 11.0279ZM316.295 11.8327V11.0279H314.428V17.2057H316.3V14.3216C316.3 13.3452 317.339 12.8251 318.058 12.8251H318.079V11.0279C317.339 11.0279 316.663 11.3498 316.295 11.8327ZM311.651 14.1194C311.651 13.2415 310.912 12.5284 310.001 12.5284C309.092 12.5284 308.352 13.2415 308.352 14.1194C308.352 14.9921 309.092 15.7038 310.001 15.7038C310.912 15.7038 311.651 14.9921 311.651 14.1194ZM311.656 11.0266H313.476V17.2057H311.658V16.8106C311.127 17.1794 310.498 17.377 309.853 17.3773C309.428 17.3771 309.006 17.2926 308.613 17.1287C308.22 16.9648 307.863 16.7246 307.562 16.422C307.261 16.1193 307.023 15.76 306.861 15.3647C306.698 14.9694 306.615 14.5458 306.615 14.1181C306.615 13.6906 306.699 13.2673 306.861 12.8723C307.024 12.4773 307.262 12.1184 307.563 11.816C307.864 11.5136 308.221 11.2736 308.614 11.1099C309.007 10.9461 309.428 10.8618 309.853 10.8616C310.499 10.8616 311.124 11.0585 311.658 11.427L311.656 11.0266ZM322.613 10.8616C321.891 10.8616 321.202 11.0944 320.736 11.7236V11.0266H318.927V17.2003H320.763V13.9585C320.763 13.018 321.383 12.5604 322.127 12.5604C322.93 12.5604 323.389 13.0432 323.389 13.9478V17.2057H325.209V13.2774C325.209 11.838 324.081 10.8616 322.613 10.8616ZM303.987 17.2057H305.896V8.2729H303.987V17.2057ZM295.621 17.2057H297.637V8.2729H295.621V17.2057ZM302.68 8.26758C302.685 9.20873 302.505 10.1417 302.151 11.013C301.797 11.8842 301.275 12.6768 300.616 13.3452L303.404 17.2057H300.911L297.879 13.0073L298.661 12.414C299.299 11.9313 299.816 11.3056 300.172 10.5868C300.528 9.86797 300.712 9.07571 300.71 8.2729H302.685L302.68 8.26758Z" fill="#0A0B09"/>
<rect x="147.807" width="43.8623" height="27.1131" rx="2.34612" fill="white"/>
<rect x="147.936" y="0.129378" width="43.6035" height="26.8544" rx="2.21675" stroke="#424242" stroke-opacity="0.4" stroke-width="0.258756"/>
<path d="M153.291 10.3801H154.652L153.972 8.64746L153.291 10.3801Z" fill="#2FABF7"/>
<path d="M170.182 8.89489C170.058 8.83301 169.872 8.83301 169.687 8.83301H168.449V9.82308H169.687C169.872 9.82308 170.058 9.82308 170.182 9.7612C170.306 9.69932 170.367 9.51368 170.367 9.32805C170.429 9.08053 170.306 8.95677 170.182 8.89489Z" fill="#228FE0"/>
<path d="M183.426 7.03857V7.78113L183.055 7.03857H180.147V7.78113L179.775 7.03857H175.815C175.134 7.03857 174.577 7.16233 174.082 7.40985V7.03857H171.298V7.40985C170.988 7.16233 170.617 7.03857 170.122 7.03857H160.159L159.479 8.58557L158.798 7.03857H155.642V7.78113L155.271 7.03857H152.61L151.372 9.94692L149.949 13.1647H153.105L153.476 12.1746H154.343L154.714 13.1647H158.303V12.4221L158.612 13.1647H160.407L160.716 12.4221V13.1647H169.318V11.5558H169.441C169.565 11.5558 169.565 11.5558 169.565 11.7414V13.1028H174.02V12.7315C174.392 12.9171 174.949 13.1028 175.691 13.1028H177.548L177.919 12.1127H178.785L179.156 13.1028H182.745V12.1746L183.302 13.1028H186.211V7.03857H183.426ZM162.511 12.2365H161.459V8.83309L159.974 12.2365H159.046L157.56 8.83309V12.2365H155.457L155.023 11.3083H152.919L152.548 12.2984H151.372L153.229 7.90489H154.776L156.508 12.0508V7.90489H158.179L159.541 10.8751L160.778 7.90489H162.511V12.2365ZM166.719 8.83309H164.305V9.63752H166.657V10.5038H164.305V11.3702H166.719V12.2984H163.253V7.90489H166.719V8.83309ZM171.36 10.6276C171.483 10.8751 171.545 11.0608 171.545 11.432V12.2984H170.493V11.7414C170.493 11.4939 170.493 11.1226 170.308 10.8751C170.122 10.6895 169.936 10.6895 169.565 10.6895H168.451V12.2984H167.399V7.90489H169.751C170.308 7.90489 170.679 7.90489 170.988 8.09053C171.298 8.27617 171.483 8.58557 171.483 9.0806C171.483 9.76128 171.05 10.1326 170.741 10.2563C171.05 10.3182 171.236 10.5038 171.36 10.6276ZM173.216 12.2365H172.164V7.84301H173.216V12.2365ZM185.406 12.2365H183.921L181.941 8.95685V12.2365H179.837L179.466 11.3083H177.3L176.929 12.2984H175.753C175.258 12.2984 174.639 12.1746 174.268 11.8033C173.897 11.432 173.711 10.937 173.711 10.1326C173.711 9.51376 173.835 8.89497 174.268 8.39993C174.577 8.02865 175.134 7.90489 175.815 7.90489H176.805V8.83309H175.815C175.444 8.83309 175.258 8.89497 175.011 9.0806C174.825 9.26624 174.701 9.63752 174.701 10.0707C174.701 10.5657 174.763 10.8751 175.011 11.1226C175.196 11.3083 175.444 11.3702 175.753 11.3702H176.186L177.609 7.96677H179.156L180.889 12.1127V7.96677H182.436L184.231 10.9989V7.96677H185.283V12.2365H185.406Z" fill="#0571C1"/>
<path d="M177.673 10.3801H179.097L178.416 8.64746L177.673 10.3801ZM167.154 19.2908V15.7636L165.545 17.4963L167.154 19.2908Z" fill="#228FE0"/>
<path d="M160.529 16.1968V17.0012H162.819V17.8675H160.529V18.7957H163.066L164.242 17.4963L163.128 16.1968H160.529Z" fill="#2FABF7"/>
<path d="M169.503 16.1968H168.203V17.3106H169.564C169.936 17.3106 170.183 17.125 170.183 16.7537C170.121 16.3824 169.874 16.1968 169.503 16.1968Z" fill="#228FE0"/>
<path d="M188.624 17.2485V14.4639H186.025C185.468 14.4639 185.035 14.5876 184.726 14.8351V14.4639H181.879C181.446 14.4639 180.889 14.5876 180.642 14.8351V14.4639H175.63V14.8351C175.258 14.5257 174.578 14.4639 174.268 14.4639H170.927V14.8351C170.617 14.5257 169.875 14.4639 169.503 14.4639H165.791L164.924 15.3921L164.12 14.4639H158.551V20.5281H163.996L164.863 19.5999L165.667 20.5281H169.008V19.1048H169.442C169.875 19.1048 170.432 19.1048 170.865 18.9192V20.59H173.649V18.9811H173.773C173.959 18.9811 173.959 18.9811 173.959 19.1667V20.59H182.374C182.931 20.59 183.488 20.4662 183.798 20.2187V20.59H186.459C187.015 20.59 187.572 20.5281 187.944 20.2806C188.562 19.9093 188.934 19.2286 188.934 18.4242C188.934 17.991 188.81 17.5579 188.624 17.2485ZM169.442 18.2385H168.204V19.7236H166.224L164.986 18.3004L163.687 19.7236H159.603V15.3302H163.749L164.986 16.7534L166.286 15.3302H169.565C170.37 15.3302 171.298 15.5777 171.298 16.7534C171.236 17.991 170.37 18.2385 169.442 18.2385ZM175.63 17.991C175.753 18.1767 175.815 18.4242 175.815 18.7954V19.6618H174.763V19.1048C174.763 18.8573 174.763 18.4242 174.578 18.2385C174.454 18.0529 174.206 18.0529 173.835 18.0529H172.721V19.6618H171.669V15.2683H174.021C174.516 15.2683 174.949 15.2683 175.258 15.4539C175.568 15.6396 175.815 15.949 175.815 16.444C175.815 17.1247 175.382 17.496 175.073 17.6197C175.382 17.7435 175.568 17.8673 175.63 17.991ZM179.899 16.1965H177.486V17.0009H179.837V17.8673H177.486V18.7336H179.899V19.6618H176.434V15.2683H179.899V16.1965ZM182.498 19.6618H180.518V18.7336H182.498C182.684 18.7336 182.808 18.7336 182.931 18.6098C182.993 18.5479 183.055 18.4242 183.055 18.3004C183.055 18.1767 182.993 18.0529 182.931 17.991C182.87 17.9291 182.746 17.8673 182.56 17.8673C181.57 17.8054 180.394 17.8673 180.394 16.5059C180.394 15.8871 180.766 15.2064 181.879 15.2064H183.921V16.2584H182.003C181.818 16.2584 181.694 16.2584 181.57 16.3203C181.446 16.3821 181.446 16.5059 181.446 16.6297C181.446 16.8153 181.57 16.8772 181.694 16.9391C181.818 17.0009 181.941 17.0009 182.065 17.0009H182.622C183.179 17.0009 183.55 17.1247 183.798 17.3722C183.983 17.5579 184.107 17.8673 184.107 18.3004C184.107 19.2286 183.55 19.6618 182.498 19.6618ZM187.82 19.2286C187.572 19.4761 187.139 19.6618 186.52 19.6618H184.54V18.7336H186.52C186.706 18.7336 186.83 18.7336 186.954 18.6098C187.015 18.5479 187.077 18.4242 187.077 18.3004C187.077 18.1767 187.015 18.0529 186.954 17.991C186.892 17.9291 186.768 17.8673 186.582 17.8673C185.592 17.8054 184.417 17.8673 184.417 16.5059C184.417 15.8871 184.788 15.2064 185.902 15.2064H187.944V16.2584H186.087C185.902 16.2584 185.778 16.2584 185.654 16.3203C185.53 16.3821 185.53 16.5059 185.53 16.6297C185.53 16.8153 185.592 16.8772 185.778 16.9391C185.902 17.0009 186.025 17.0009 186.149 17.0009H186.706C187.263 17.0009 187.634 17.1247 187.882 17.3722C187.944 17.3722 187.944 17.4341 187.944 17.4341C188.129 17.6816 188.191 17.991 188.191 18.3004C188.191 18.6717 188.067 18.9811 187.82 19.2286Z" fill="#0571C1"/>
<path d="M174.514 16.3202C174.39 16.2583 174.204 16.2583 174.019 16.2583H172.781V17.2484H174.019C174.204 17.2484 174.39 17.2484 174.514 17.1865C174.638 17.1246 174.7 16.939 174.7 16.7533C174.761 16.5058 174.638 16.3821 174.514 16.3202Z" fill="#228FE0"/>
<path d="M170.184 8.89498C170.06 8.8331 169.875 8.8331 169.689 8.8331H168.451V9.82318H169.689C169.875 9.82318 170.06 9.82318 170.184 9.7613C170.308 9.69942 170.37 9.51378 170.37 9.32814C170.431 9.08062 170.308 8.95686 170.184 8.89498ZM177.671 10.3801H179.095L178.414 8.64746L177.671 10.3801ZM167.152 19.2908V15.7636L165.543 17.4963L167.152 19.2908ZM169.503 16.1968H168.204V17.3106H169.565C169.936 17.3106 170.184 17.125 170.184 16.7537C170.122 16.3824 169.875 16.1968 169.503 16.1968ZM174.516 16.3205C174.392 16.2587 174.206 16.2587 174.02 16.2587H172.783V17.2487H174.02C174.206 17.2487 174.392 17.2487 174.516 17.1869C174.639 17.125 174.701 16.9393 174.701 16.7537C174.763 16.5062 174.639 16.3824 174.516 16.3205Z" fill="#228FE0"/>
<path d="M169.07 19.538L168.204 18.6098V19.6618H166.162L164.924 18.2385L163.563 19.6618H159.479V15.3302H163.625L164.924 16.7534L165.543 16.0109L163.996 14.4639H158.551V20.5281H163.996L164.924 19.5999L165.729 20.5281H169.07V19.538Z" fill="#2FABF7"/>
<path d="M162.635 13.1028L161.83 12.2365H161.459V11.8652L160.531 10.937L159.912 12.2365H159.046L157.56 8.83309V12.2365H155.457L155.023 11.3083H152.919L152.486 12.2365H151.372L153.229 7.90489H154.776L156.508 12.0508V7.90489H157.437L156.57 7.03857H155.642V7.78113L155.333 7.03857H152.61L151.372 9.94692L149.949 13.1028H153.167L153.538 12.1746H154.405L154.838 13.1028H158.303V12.3602L158.612 13.1028H160.407L160.716 12.3602V13.1028H162.635Z" fill="#2FABF7"/>
<path d="M159.787 10.2562L158.797 9.26611L159.539 10.875L159.787 10.2562Z" fill="#2FABF7"/>
<path d="M187.946 20.2193C188.503 19.848 188.874 19.2292 188.936 18.5485L188.07 17.6822C188.131 17.8678 188.193 18.0535 188.193 18.301C188.193 18.6723 188.07 18.9817 187.822 19.2292C187.575 19.4767 187.141 19.6623 186.523 19.6623H184.542V18.7341H186.523C186.708 18.7341 186.832 18.7341 186.956 18.6104C187.018 18.5485 187.079 18.4248 187.079 18.301C187.079 18.1772 187.018 18.0535 186.956 17.9916C186.894 17.9297 186.77 17.8678 186.584 17.8678C185.594 17.806 184.419 17.8678 184.419 16.5065C184.419 15.8877 184.79 15.3308 185.718 15.207L185.037 14.5263C184.914 14.5882 184.852 14.6501 184.79 14.6501V14.2788H181.943C181.51 14.2788 180.953 14.4026 180.706 14.6501V14.2788H175.632V14.6501C175.26 14.3407 174.58 14.2788 174.27 14.2788H170.929V14.6501C170.619 14.3407 169.877 14.2788 169.506 14.2788H165.793L164.927 15.207L164.122 14.2788H163.441L165.298 16.1352L166.226 15.1451H169.506C170.31 15.1451 171.238 15.3926 171.238 16.5684C171.238 17.806 170.372 18.0535 169.444 18.0535H168.206V18.9817L169.134 19.9099V18.9817H169.444C169.877 18.9817 170.434 18.9817 170.867 18.796V20.4668H173.652V18.8579H173.775C173.961 18.8579 173.961 18.8579 173.961 19.0435V20.4668H182.377C182.934 20.4668 183.49 20.343 183.8 20.0955V20.4668H186.461C186.956 20.5287 187.513 20.4668 187.946 20.2193ZM175.632 17.9916C175.755 18.1772 175.817 18.4247 175.817 18.796V19.6623H174.765V19.1054C174.765 18.8579 174.765 18.4248 174.58 18.2391C174.456 18.0535 174.208 18.0535 173.837 18.0535H172.723V19.6623H171.671V15.2689H174.023C174.518 15.2689 174.951 15.2689 175.26 15.4545C175.57 15.6402 175.817 15.9496 175.817 16.4446C175.817 17.1253 175.384 17.4966 175.075 17.6203C175.384 17.7441 175.57 17.8678 175.632 17.9916ZM179.901 16.1971H177.488V17.0015H179.84V17.8678H177.488V18.7341H179.901V19.6623H176.436V15.2689H179.901V16.1971ZM182.5 19.6623H180.52V18.7341H182.5C182.686 18.7341 182.81 18.7341 182.934 18.6104C182.995 18.5485 183.057 18.4248 183.057 18.301C183.057 18.1772 182.995 18.0535 182.934 17.9916C182.872 17.9297 182.748 17.8678 182.562 17.8678C181.572 17.806 180.396 17.8678 180.396 16.5065C180.396 15.8877 180.768 15.207 181.882 15.207H183.924V16.259H182.005C181.82 16.259 181.696 16.259 181.572 16.3208C181.448 16.3827 181.448 16.5065 181.448 16.6302C181.448 16.8159 181.572 16.8778 181.696 16.9396C181.82 17.0015 181.943 17.0015 182.067 17.0015H182.624C183.181 17.0015 183.552 17.1253 183.8 17.3728C183.985 17.5584 184.109 17.8678 184.109 18.301C184.109 19.2292 183.552 19.6623 182.5 19.6623Z" fill="#228FE0"/>
<path d="M185.471 16.6301C185.471 16.8157 185.533 16.8776 185.718 16.9395C185.842 17.0013 185.966 17.0013 186.09 17.0013H186.646C187.018 17.0013 187.265 17.0632 187.513 17.187L186.585 16.2588H186.028C185.842 16.2588 185.718 16.2588 185.594 16.3207C185.533 16.3825 185.471 16.5063 185.471 16.6301Z" fill="#228FE0"/>
<path d="M183.3 12.9171L183.424 13.1027H183.486L183.3 12.9171ZM179.896 9.51367L180.948 12.0507V10.5656L179.896 9.51367Z" fill="#228FE0"/>
<path d="M169.316 11.5559H169.44C169.564 11.5559 169.564 11.5559 169.564 11.7416V13.1029H174.019V12.7316C174.391 12.9173 174.948 13.1029 175.69 13.1029H177.546L177.918 12.1128H178.784L179.155 13.1029H182.744V12.4841L181.878 11.6178V12.2985H179.774L179.465 11.3084H177.299L176.928 12.2985H175.752C175.257 12.2985 174.638 12.1747 174.267 11.8034C173.896 11.4322 173.71 10.9371 173.71 10.1327C173.71 9.5139 173.834 8.8951 174.267 8.40006C174.576 8.02878 175.133 7.90502 175.814 7.90502H176.804V8.83322H175.814C175.443 8.83322 175.257 8.8951 175.009 9.08074C174.824 9.26638 174.7 9.63765 174.7 10.0708C174.7 10.5659 174.762 10.8752 175.009 11.1228C175.195 11.3084 175.443 11.3703 175.752 11.3703H176.185L177.608 7.9669H178.227L177.361 7.10059H175.752C175.071 7.10059 174.514 7.22434 174.019 7.47186V7.10059H171.297V7.47186C170.987 7.22434 170.616 7.10059 170.121 7.10059H160.158L159.478 8.64758L158.797 7.10059H156.074L156.941 7.9669H158.178L159.23 10.2565L159.601 10.6277L160.715 7.90502H162.448V12.2985H161.396V8.8951L160.344 11.3703L162.138 13.1648H169.255L169.316 11.5559ZM172.163 7.90502H173.215V12.2985H172.163V7.90502ZM166.718 8.83322H164.304V9.63765H166.656V10.504H164.304V11.3703H166.718V12.2985H163.252V7.90502H166.718V8.83322ZM168.45 12.2366H167.398V7.84314H169.75C170.307 7.84314 170.678 7.84314 170.987 8.02878C171.297 8.21442 171.482 8.52382 171.482 9.01886C171.482 9.69953 171.049 10.0708 170.74 10.1946C170.987 10.2565 171.173 10.4421 171.235 10.5658C171.359 10.8134 171.42 10.999 171.42 11.3703V12.2366H170.368V11.6797C170.368 11.4322 170.368 11.0609 170.183 10.8134C170.121 10.6896 169.935 10.6896 169.564 10.6896H168.45V12.2366Z" fill="#228FE0"/>
<rect x="342.023" width="43.8623" height="27.1131" rx="2.34612" fill="white"/>
<rect x="342.153" y="0.129378" width="43.6035" height="26.8544" rx="2.21675" stroke="#424242" stroke-opacity="0.4" stroke-width="0.258756"/>
<path d="M376.05 12.3051L373.281 18.0191H372.131L373.167 15.8845L371.539 12.3038H372.719L373.764 14.7031L374.907 12.3038L376.05 12.3051ZM365.514 14.3367C365.524 14.0389 365.415 13.7493 365.211 13.5315C365.007 13.3137 364.725 13.1854 364.427 13.1749H364.411C363.8 13.1749 363.305 13.6639 363.305 14.3354C363.305 15.0083 363.8 15.4972 364.411 15.4972C364.709 15.4911 364.992 15.3676 365.198 15.1538C365.405 14.94 365.518 14.6533 365.514 14.3563V14.3367ZM362.3 18.0243V12.309H363.3V12.8332C363.61 12.446 364.085 12.223 364.58 12.2373C365.677 12.2373 366.534 13.1345 366.534 14.3315C366.534 15.5233 365.656 16.4309 364.555 16.4309C364.323 16.4361 364.093 16.3898 363.881 16.2953C363.669 16.2008 363.481 16.0605 363.33 15.8845V18.0191L362.3 18.0243ZM370.131 14.3367C370.131 13.6482 369.636 13.1749 369.029 13.1749C368.417 13.1749 367.932 13.6639 367.932 14.3354C367.932 15.0083 368.428 15.4972 369.034 15.4972C369.641 15.4972 370.137 15.0187 370.137 14.3367M370.147 16.3631V15.8337C369.992 16.0243 369.796 16.177 369.573 16.2803C369.351 16.3836 369.107 16.4347 368.862 16.4296C367.754 16.4296 366.906 15.539 366.906 14.3367C366.906 13.1345 367.779 12.2373 368.881 12.2373C369.366 12.2321 369.826 12.446 370.137 12.8189V12.309H371.132V16.3644L370.147 16.3631ZM360.503 12.7068C360.641 12.4982 360.848 12.3453 361.088 12.2753C361.329 12.2054 361.586 12.2228 361.814 12.3247V13.3587C361.814 13.3587 361.442 13.1345 361.096 13.1749C360.752 13.2205 360.534 13.5361 360.534 13.9638V16.3631H359.507V12.3051H360.508L360.503 12.7068ZM383.796 12.0796L382.613 11.4015L381.419 10.7143C381.238 10.6111 381.032 10.5571 380.824 10.5576C380.615 10.5582 380.41 10.6133 380.23 10.7175C380.049 10.8218 379.899 10.9714 379.794 11.1516C379.689 11.3318 379.634 11.5362 379.633 11.7444V11.897C379.633 11.9778 379.679 12.06 379.751 12.1004L380.301 12.4212C380.413 12.4825 380.551 12.4473 380.613 12.3351C380.634 12.3015 380.646 12.2628 380.648 12.223V11.8553C380.648 11.793 380.673 11.7333 380.717 11.6893C380.761 11.6453 380.821 11.6206 380.883 11.6206C380.918 11.6206 380.959 11.631 380.996 11.6519L383.178 12.905C383.25 12.9506 383.296 13.0275 383.296 13.1084C383.296 13.1496 383.285 13.1902 383.265 13.2259C383.244 13.2617 383.214 13.2913 383.178 13.3118L382.097 13.9494L381.005 14.5753C380.969 14.5957 380.929 14.6066 380.888 14.6068C380.847 14.607 380.807 14.5966 380.772 14.5766C380.736 14.5566 380.706 14.5277 380.685 14.4927C380.664 14.4577 380.653 14.4179 380.652 14.3771V14.1881C380.652 13.9799 380.598 13.7754 380.496 13.5942C380.393 13.413 380.245 13.2613 380.067 13.154C379.886 13.0493 379.682 12.9938 379.473 12.9928C379.265 12.9919 379.059 13.0457 378.878 13.1488L377.679 13.8321L376.494 14.5141C376.312 14.6184 376.161 14.7691 376.056 14.9507C375.951 15.1323 375.896 15.3385 375.897 15.5481C375.896 15.7577 375.951 15.9639 376.056 16.1455C376.161 16.3271 376.312 16.4778 376.494 16.5821L377.674 17.255L378.873 17.937C379.239 18.1456 379.689 18.1456 380.056 17.937C380.236 17.8325 380.386 17.6832 380.49 17.5038C380.595 17.3244 380.651 17.1209 380.653 16.9133V16.7569C380.654 16.7159 380.644 16.6755 380.624 16.6396C380.605 16.6037 380.576 16.5735 380.541 16.5521L379.984 16.2366C379.949 16.2166 379.91 16.206 379.87 16.206C379.829 16.206 379.79 16.2166 379.755 16.2366C379.719 16.2559 379.69 16.2847 379.67 16.3197C379.65 16.3548 379.641 16.3946 379.642 16.4348V16.796C379.642 16.8373 379.632 16.878 379.611 16.9139C379.591 16.9497 379.561 16.9796 379.525 17.0003C379.49 17.0211 379.449 17.0321 379.407 17.0322C379.366 17.0322 379.325 17.0214 379.29 17.0007L378.194 16.3748L377.107 15.7528C377.072 15.7312 377.042 15.7012 377.022 15.6654C377.001 15.6296 376.99 15.5893 376.989 15.5481C376.99 15.5062 377 15.4651 377.021 15.4287C377.042 15.3922 377.071 15.3615 377.107 15.3395L378.194 14.7188L379.291 14.0864C379.346 14.0573 379.41 14.0506 379.47 14.0676C379.53 14.0846 379.581 14.124 379.612 14.1776C379.633 14.2113 379.643 14.2503 379.642 14.2898V14.4736C379.643 14.6814 379.699 14.8853 379.803 15.0649C379.908 15.2446 380.058 15.3937 380.238 15.4973C380.418 15.6009 380.623 15.6555 380.831 15.6555C381.039 15.6555 381.244 15.6009 381.424 15.4972L382.623 14.8153L383.801 14.1372C383.984 14.0329 384.135 13.8823 384.241 13.7007C384.346 13.5191 384.402 13.313 384.402 13.1032C384.402 12.8933 384.346 12.6872 384.241 12.5056C384.135 12.324 383.984 12.1735 383.801 12.0691L383.796 12.0796ZM348.037 14.8505C347.818 15.7828 347.012 16.4244 345.981 16.4244C345.458 16.4156 344.957 16.2124 344.576 15.8546C344.195 15.4968 343.961 15.01 343.92 14.4893C343.875 13.9663 344.028 13.4456 344.35 13.0305C344.672 12.6154 345.138 12.3362 345.657 12.2484C346.175 12.1606 346.708 12.2705 347.149 12.5564C347.59 12.8423 347.907 13.2832 348.037 13.7917H346.982C346.893 13.6097 346.755 13.456 346.583 13.3478C346.412 13.2395 346.214 13.181 346.011 13.1788C345.712 13.1888 345.428 13.3146 345.22 13.5296C345.012 13.7445 344.895 14.0318 344.895 14.3308C344.895 14.6298 345.012 14.9172 345.22 15.1321C345.428 15.3471 345.712 15.4728 346.011 15.4829C346.218 15.4846 346.422 15.4256 346.596 15.3132C346.77 15.2008 346.907 15.0399 346.991 14.8505H348.037ZM348.511 16.3579V10.6387H349.543V16.3579H348.511ZM351.068 14.6001C351.085 14.8623 351.204 15.1075 351.399 15.2835C351.595 15.4596 351.851 15.5526 352.114 15.5429C352.507 15.5533 352.874 15.3499 353.074 15.0135H354.119C353.875 15.8741 353.104 16.4244 352.089 16.4244C350.864 16.4244 350.007 15.5637 350.007 14.3419C350.007 13.1136 350.921 12.2321 352.114 12.2321C353.308 12.2321 354.196 13.124 354.196 14.3419C354.196 14.428 354.191 14.5141 354.175 14.6014L351.068 14.6001ZM353.104 13.969C353.073 13.7281 352.952 13.5078 352.766 13.3513C352.58 13.1949 352.341 13.1138 352.098 13.124C351.854 13.117 351.615 13.1988 351.427 13.3542C351.238 13.5096 351.112 13.7281 351.073 13.969H353.104ZM357.834 16.3579V15.8337C357.523 16.2157 357.049 16.4348 356.554 16.4244C355.446 16.4244 354.6 15.5338 354.6 14.3315C354.6 13.1345 355.476 12.2373 356.579 12.2373C357.063 12.2321 357.523 12.446 357.834 12.8189V12.309H358.829V16.3644L357.834 16.3579ZM357.834 14.3315C357.834 13.6482 357.339 13.1749 356.732 13.1749C356.126 13.1749 355.63 13.6587 355.63 14.3315C355.63 15.003 356.126 15.492 356.732 15.492C357.339 15.492 357.834 15.0135 357.834 14.3315Z" fill="#45CA9F"/>
<defs>
<clipPath id="clip0_1546_57041">
<rect width="35.6001" height="13.35" fill="white" transform="translate(103.23 7.03857)"/>
</clipPath>
</defs>
</svg>
