<svg width="152" height="32" viewBox="0 0 152 32" fill="none" xmlns="http://www.w3.org/2000/svg">
<g clip-path="url(#clip0_1546_57008)">
<g clip-path="url(#clip1_1546_57008)">
<g clip-path="url(#clip2_1546_57008)">
<path d="M152 31.4013H0V0.00146484H152L152 31.4013ZM51.5209 1.25765V30.1455H150.744V1.25765H51.5209ZM16.2603 5.8229C16.2058 5.8229 16.1524 5.82502 16.1016 5.82914C15.5266 5.85702 14.9855 6.10972 14.595 6.53271L8.99299 12.0841L8.36479 12.7123C8.22363 12.8536 8.08044 12.9939 7.94196 13.1297L7.93431 13.1373C7.64744 13.4182 7.37709 13.6835 7.10881 13.9679C6.84917 14.2264 6.65805 14.5456 6.55276 14.8965C6.44747 15.2475 6.43137 15.6191 6.5058 15.9778C6.60183 16.453 6.84854 16.8845 7.20932 17.2084C8.27195 18.2836 9.38203 19.4 10.3613 20.385C11.4126 21.4427 12.4995 22.5364 13.5644 23.6141C13.647 23.683 13.7242 23.7583 13.7951 23.8392C13.8284 23.8753 13.8597 23.909 13.8915 23.941C13.9658 24.0153 14.0409 24.0875 14.1136 24.1574L14.1216 24.1651C14.2704 24.3083 14.4106 24.4435 14.5449 24.5936C14.8944 24.9659 15.3675 25.1982 15.8758 25.2469C15.9221 25.2477 15.9682 25.2518 16.0139 25.2594H16.0174C16.0619 25.2668 16.1069 25.271 16.152 25.2717C16.4542 25.2728 16.7532 25.2106 17.0301 25.0895C17.3069 24.9684 17.5555 24.791 17.7598 24.5684L27.5565 14.7718L27.5581 14.77C28.3968 13.9315 29.264 13.0642 30.1438 12.2094L30.5152 11.8378L30.701 11.6522L30.7202 11.6332C30.93 11.4233 31.1399 11.2133 31.3498 11.0036L34.8169 7.53657C34.8808 7.47128 34.9569 7.41945 35.041 7.38381C35.1251 7.34817 35.2154 7.32947 35.3067 7.32899C35.398 7.32947 35.4883 7.34817 35.5723 7.38381C35.6564 7.41945 35.7326 7.47128 35.7964 7.53657L42.5036 14.2438L42.5046 14.245L42.7803 14.5205L42.801 14.5412C42.97 14.7103 43.14 14.8805 43.3334 15.0741C43.4583 15.1992 43.5294 15.3681 43.5315 15.5449C43.5335 15.7337 43.4625 15.916 43.3334 16.0538L43.2331 16.1539L43.183 16.2041L38.1594 21.2285C37.9336 21.4538 37.687 21.6999 37.4057 21.9814C37.2369 22.1502 37.0575 22.3264 36.8997 22.4818L36.8941 22.4873C36.5564 22.8193 36.2073 23.1627 35.8733 23.5139C35.8654 23.522 35.8585 23.5311 35.8527 23.5409C35.8443 23.5543 35.8385 23.5641 35.8228 23.5641C35.6987 23.6761 35.5386 23.7402 35.3715 23.7447C35.3459 23.7447 35.3205 23.7432 35.2951 23.74C35.1015 23.7247 34.9214 23.6345 34.793 23.4887L30.4222 19.118L29.4935 18.1893L29.2167 17.9132L28.9406 18.1893L28.8352 18.2947L28.7146 18.4152L28.4127 18.7165L28.1869 18.9436L29.393 20.149L31.9295 22.6862C32.528 23.3097 33.18 23.9614 33.814 24.5702C34.0158 24.7769 34.2571 24.9409 34.5235 25.0525C34.79 25.164 35.0762 25.221 35.3651 25.2197C35.6523 25.2209 35.9366 25.1623 36.2 25.0476C36.5053 24.924 36.78 24.7352 37.0049 24.4946L44.4156 17.0848C44.6497 16.8403 44.8254 16.5461 44.9298 16.2241C45.0341 15.9021 45.0643 15.5606 45.0181 15.2253C44.9654 14.7199 44.7232 14.2535 44.3403 13.9195L39.2911 8.86995C39.0402 8.61962 38.7862 8.36544 38.5482 8.12708L38.3536 7.93239L38.237 7.81591C38.0141 7.59343 37.7854 7.36446 37.5535 7.13249L37.5122 7.09117L37.3417 6.92088L36.8312 6.41018C36.6278 6.2056 36.3859 6.04339 36.1194 5.93293C35.853 5.82248 35.5673 5.76595 35.2788 5.76667C35.0645 5.76676 34.8512 5.79736 34.6454 5.85736C34.2622 5.97718 33.9163 6.1935 33.6408 6.48555C32.8359 7.30775 32.0059 8.13159 31.2039 8.92799L31.149 8.98241C30.7637 9.36503 30.3648 9.76103 29.9727 10.1531C29.554 10.5545 29.1418 10.9726 28.7433 11.3769L28.7409 11.3795C28.5357 11.5875 28.3351 11.79 28.1391 11.9867L23.9942 16.1568C23.442 16.7346 22.8672 17.309 22.286 17.8648L16.6345 23.5667C16.5802 23.6296 16.5126 23.6799 16.4365 23.7134C16.3605 23.747 16.278 23.7631 16.1949 23.7608C16.1399 23.7606 16.0851 23.7545 16.0315 23.7425C15.8761 23.6994 15.7365 23.6122 15.6298 23.4913L8.92265 16.8093C8.66819 16.5293 8.41537 16.2766 8.17061 16.0324L8.16895 16.0308C8.08175 15.9491 8.01913 15.8447 7.98807 15.7293C7.957 15.6139 7.95872 15.4921 7.9931 15.3776C8.037 15.2295 8.12454 15.0981 8.24427 15.0005L15.68 7.5404C15.74 7.47291 15.814 7.41913 15.8968 7.383C15.9796 7.34687 16.0693 7.32912 16.1596 7.33101C16.2354 7.33121 16.3107 7.3425 16.3833 7.36446C16.5248 7.42128 16.6529 7.50676 16.7597 7.61558L22.1352 12.9912L22.7886 12.338L22.9392 12.1875L23.2153 11.9114L22.9642 11.6596L22.1593 10.8561L22.0339 10.7308C21.799 10.4951 21.6314 10.3277 21.456 10.1529L19.0208 7.71594C18.8947 7.59047 18.744 7.43975 18.6185 7.31428C18.349 7.04413 18.0702 6.7654 17.7895 6.48535C17.5913 6.27899 17.354 6.11419 17.0915 6.00045C16.8289 5.88671 16.5464 5.82633 16.2603 5.8229Z" fill="white"/>
<path d="M57.274 19.8463V17.912C57.5141 18.1276 57.7854 18.3054 58.0789 18.4395C58.3923 18.6035 58.7203 18.7381 59.0586 18.8415C59.3956 18.9488 59.7397 19.0327 60.0884 19.0926C60.404 19.1471 60.7228 19.1807 61.0429 19.1931C62.0477 19.1931 62.8263 19.0173 63.3287 18.6405C63.7004 18.3238 63.9528 17.8897 64.044 17.41C64.1352 16.9302 64.0597 16.4338 63.8302 16.0028C63.6381 15.7079 63.4007 15.4451 63.1268 15.2241C62.7903 14.9754 62.4379 14.7489 62.0718 14.546C61.6698 14.345 61.2428 14.119 60.7657 13.8678C60.2634 13.6167 59.8112 13.3655 59.384 13.1142C58.9758 12.8851 58.6034 12.5973 58.2787 12.2602C57.9643 11.9582 57.7087 11.6005 57.525 11.2052C57.3371 10.7691 57.2429 10.2983 57.2486 9.82351C57.2374 9.23436 57.3849 8.65303 57.6756 8.14052C57.9554 7.67242 58.3323 7.2698 58.781 6.95985C59.2589 6.64896 59.7853 6.41978 60.3385 6.2817C60.9209 6.1306 61.5203 6.05431 62.122 6.05469C63.5037 6.05469 64.5335 6.23052 65.1615 6.55701V8.41583C64.3325 7.83798 63.2523 7.56185 61.9462 7.56185C61.5842 7.5704 61.2233 7.60398 60.866 7.66235C60.5281 7.73062 60.2049 7.8582 59.9115 8.03919C59.6446 8.21013 59.4142 8.43211 59.2334 8.69237C59.0485 8.98535 58.9525 9.32563 58.957 9.67203C58.9527 9.99284 59.0214 10.3104 59.158 10.6007C59.3057 10.8831 59.511 11.1313 59.7609 11.3292C60.0532 11.5758 60.3738 11.7868 60.716 11.9578C61.0928 12.1589 61.5208 12.3848 62.0221 12.636C62.5234 12.8871 63.0018 13.1383 63.4539 13.4146C63.8815 13.6689 64.2778 13.9724 64.6346 14.319C64.9679 14.6354 65.2407 15.01 65.4395 15.4243C65.6477 15.8635 65.751 16.3451 65.741 16.831C65.7659 17.4424 65.6271 18.0494 65.339 18.5893C65.0736 19.068 64.6938 19.4736 64.2336 19.77C63.744 20.0876 63.1984 20.3092 62.626 20.4231C61.9982 20.556 61.3584 20.6234 60.7168 20.6242C60.4898 20.6242 60.2145 20.599 59.8878 20.574C59.5611 20.549 59.2346 20.4735 58.8829 20.4233C58.5321 20.348 58.2298 20.2727 57.9033 20.1722C57.686 20.0788 57.4757 19.9699 57.274 19.8463Z" fill="white"/>
<path d="M70.0346 18.9671H69.9844V25.1214H68.3516V10.2756H69.9844V12.0591H70.0346C70.8384 10.7026 71.9939 10.0244 73.5522 10.0244C74.8584 10.0244 75.8884 10.4766 76.6169 11.3809C77.3454 12.2853 77.721 13.5161 77.721 15.0484C77.721 16.7566 77.319 18.1131 76.4902 19.1429C75.6614 20.1727 74.5308 20.6752 73.099 20.6752C71.7679 20.6752 70.7631 20.1226 70.0346 18.9671ZM70.0094 14.8726V16.2792C69.9923 17.0726 70.2904 17.8404 70.8384 18.4144C71.1036 18.7004 71.4266 18.9268 71.7859 19.0783C72.1453 19.2299 72.5329 19.3033 72.9228 19.2935C73.3715 19.3111 73.8176 19.217 74.221 19.0198C74.6244 18.8225 74.9725 18.5282 75.2342 18.1632C75.7868 17.4095 76.0632 16.3546 76.0632 15.0232C76.0632 13.8929 75.812 13.0136 75.2845 12.361C74.757 11.7084 74.0537 11.4065 73.1494 11.4065C72.7195 11.3895 72.2912 11.4686 71.8958 11.6381C71.5004 11.8076 71.1477 12.0631 70.8636 12.3862C70.2836 13.0822 69.9796 13.9671 70.0094 14.8726Z" fill="white"/>
<path d="M88.3984 15.7521H81.2392C81.2644 16.8824 81.5657 17.7618 82.1436 18.3646C82.7214 18.9674 83.5252 19.2933 84.5299 19.2933C85.6755 19.2895 86.7847 18.8902 87.6699 18.163V19.6953C86.7907 20.3484 85.6101 20.675 84.1281 20.675C82.6962 20.675 81.5659 20.2228 80.7621 19.2933C79.9331 18.3646 79.5312 17.0828 79.5312 15.3998C79.5312 13.8173 79.9834 12.5362 80.8626 11.5565C81.276 11.0854 81.7862 10.7091 82.3585 10.4534C82.9307 10.1977 83.5515 10.0686 84.1782 10.0749C85.4843 10.0749 86.5395 10.5019 87.2429 11.3561C87.9714 12.2101 88.323 13.3908 88.323 14.9231V15.7521H88.3984ZM86.7406 14.3704C86.7406 13.441 86.5145 12.7125 86.0624 12.1849C85.6102 11.6574 85.0074 11.4063 84.2036 11.4063C83.8377 11.4033 83.4751 11.4753 83.1381 11.6179C82.8011 11.7605 82.4969 11.9706 82.2443 12.2353C81.6978 12.8239 81.3545 13.5723 81.2646 14.3704H86.7406Z" fill="white"/>
<path d="M97.7697 19.9468C96.9322 20.4342 95.9752 20.6778 95.0066 20.6501C93.5747 20.6501 92.3941 20.1728 91.5149 19.2435C90.6358 18.3142 90.1836 17.0831 90.1836 15.601C90.1836 13.9431 90.6609 12.5866 91.6154 11.5818C92.5699 10.577 93.8511 10.0753 95.4334 10.0753C96.2482 10.0636 97.0552 10.2353 97.7947 10.5776V12.2354C97.0931 11.7287 96.2497 11.4561 95.3842 11.4563C94.9061 11.4438 94.431 11.5363 93.9924 11.7272C93.5538 11.9182 93.1625 12.2029 92.8458 12.5615C92.1927 13.3151 91.841 14.2696 91.841 15.4753C91.841 16.6559 92.1425 17.6104 92.7697 18.2888C93.0896 18.6311 93.4797 18.9003 93.9132 19.078C94.3467 19.2557 94.8135 19.3378 95.2817 19.3186C96.1846 19.3062 97.0584 18.9973 97.7685 18.4394V19.946L97.7697 19.9468Z" fill="white"/>
<path d="M99.6543 20.0474V18.3139C100.492 18.9515 101.516 19.2958 102.568 19.2935C104 19.2935 104.703 18.8162 104.703 17.8617C104.717 17.6228 104.656 17.3855 104.527 17.1836C104.393 16.9861 104.223 16.8157 104.025 16.6812C103.797 16.522 103.553 16.3872 103.297 16.2792C103.02 16.1535 102.719 16.0522 102.392 15.9284C101.989 15.7762 101.594 15.6001 101.212 15.4009C100.896 15.2478 100.608 15.0441 100.358 14.7981C100.131 14.5818 99.9589 14.315 99.8553 14.0194C99.7277 13.6915 99.6679 13.3412 99.6795 12.9896C99.6647 12.5482 99.7781 12.1119 100.006 11.7336C100.224 11.3609 100.525 11.0432 100.885 10.8049C101.26 10.551 101.677 10.364 102.116 10.2522C102.584 10.132 103.065 10.0729 103.548 10.0764C104.358 10.0637 105.161 10.2176 105.909 10.5286V12.1591C105.143 11.6741 104.253 11.4211 103.347 11.4306C103.067 11.4238 102.788 11.4576 102.518 11.5312C102.293 11.5957 102.081 11.6977 101.89 11.8327C101.724 11.9517 101.587 12.1062 101.488 12.2848C101.389 12.4611 101.337 12.6603 101.337 12.8627C101.328 13.09 101.38 13.3158 101.488 13.5159C101.595 13.7038 101.74 13.8666 101.915 13.9932C102.117 14.1585 102.346 14.2861 102.593 14.37C102.845 14.4705 103.146 14.5961 103.498 14.7469C103.95 14.9227 104.352 15.0985 104.703 15.2744C105.03 15.4338 105.335 15.6365 105.608 15.8772C105.856 16.09 106.054 16.3562 106.185 16.6559C106.322 16.9907 106.39 17.3493 106.386 17.7108C106.401 18.1681 106.288 18.6204 106.06 19.017C105.835 19.3842 105.535 19.7004 105.181 19.9457C104.787 20.1999 104.354 20.3867 103.9 20.4984C103.407 20.6215 102.901 20.6806 102.393 20.6742C101.444 20.6837 100.505 20.4689 99.6543 20.0474Z" fill="white"/>
<path d="M115.826 19.9468C114.989 20.4342 114.032 20.6778 113.063 20.6501C111.631 20.6501 110.451 20.1728 109.572 19.2435C108.692 18.3142 108.24 17.0831 108.24 15.601C108.24 13.9431 108.718 12.5866 109.672 11.5818C110.627 10.577 111.908 10.0753 113.49 10.0753C114.305 10.0636 115.112 10.2353 115.851 10.5776V12.2354C115.15 11.7287 114.306 11.4561 113.441 11.4563C112.963 11.4438 112.488 11.5363 112.049 11.7272C111.61 11.9182 111.219 12.2029 110.902 12.5615C110.249 13.3151 109.898 14.2696 109.898 15.4753C109.898 16.6559 110.199 17.6104 110.826 18.2888C111.146 18.6311 111.536 18.9003 111.97 19.078C112.403 19.2557 112.87 19.3378 113.338 19.3186C114.241 19.3062 115.115 18.9973 115.825 18.4394V19.946L115.826 19.9468Z" fill="white"/>
<path d="M125.624 20.4742H123.991V18.8915H123.941C123.238 20.1223 122.183 20.7251 120.801 20.7251C119.796 20.7251 118.992 20.4488 118.415 19.9203C117.837 19.3917 117.561 18.6655 117.561 17.7863C117.561 15.8772 118.691 14.772 120.927 14.4705L123.991 14.0435C123.991 12.31 123.288 11.4562 121.881 11.4562C120.66 11.4567 119.481 11.9034 118.565 12.7122V11.029C119.606 10.3866 120.809 10.0554 122.032 10.0745C124.419 10.0745 125.625 11.3305 125.625 13.8677V20.4742H125.624ZM123.991 15.3245L121.53 15.651C120.926 15.7075 120.343 15.8962 119.821 16.2036C119.445 16.48 119.244 16.9573 119.244 17.6355C119.237 17.8666 119.281 18.0964 119.372 18.3089C119.463 18.5214 119.599 18.7116 119.771 18.8663C120.161 19.2008 120.665 19.3718 121.178 19.3436C121.555 19.3553 121.929 19.2849 122.276 19.1375C122.623 18.9901 122.934 18.769 123.187 18.4897C123.727 17.9018 124.015 17.1268 123.992 16.3293V15.3245H123.991Z" fill="white"/>
<path d="M133.892 11.9085C133.616 11.6815 133.189 11.582 132.662 11.582C131.958 11.582 131.406 11.9085 130.928 12.5617C130.476 13.2149 130.225 14.094 130.225 15.224V20.3738H128.617V10.2757H130.225V12.3601H130.275C130.461 11.7182 130.828 11.1431 131.33 10.7023C131.767 10.3157 132.329 10.1015 132.912 10.0995C133.246 10.0837 133.579 10.135 133.892 10.2501L133.892 11.9085Z" fill="white"/>
<path d="M140.972 20.2735C140.504 20.5038 139.986 20.6159 139.465 20.6C137.707 20.6 136.827 19.6204 136.827 17.661V11.7077H135.094V10.3263H136.827V7.86441L138.435 7.33691V10.3011H140.972V11.6828H138.435V17.3597C138.435 18.0379 138.56 18.5154 138.785 18.7916C139.011 19.0677 139.388 19.2185 139.916 19.2185C140.294 19.2301 140.665 19.1152 140.971 18.8921V20.2737L140.972 20.2735Z" fill="white"/>
<path d="M143.686 20.6501C143.367 20.6474 143.061 20.5217 142.832 20.2993C142.607 20.0721 142.48 19.7651 142.48 19.4452C142.48 19.1252 142.607 18.8183 142.832 18.5911C142.941 18.4743 143.073 18.3825 143.221 18.3219C143.368 18.2613 143.527 18.2335 143.686 18.2403C143.845 18.2393 144.002 18.2698 144.148 18.33C144.295 18.3902 144.428 18.479 144.54 18.5911C144.765 18.8183 144.892 19.1252 144.892 19.4452C144.892 19.7651 144.765 20.0721 144.54 20.2993C144.428 20.4114 144.295 20.5001 144.148 20.5603C144.002 20.6205 143.845 20.6511 143.686 20.6501Z" fill="white"/>
</g>
</g>
</g>
<defs>
<clipPath id="clip0_1546_57008">
<rect width="152" height="31.4032" fill="white"/>
</clipPath>
<clipPath id="clip1_1546_57008">
<rect width="152" height="31.4032" fill="white"/>
</clipPath>
<clipPath id="clip2_1546_57008">
<rect width="152" height="31.4" fill="white" transform="translate(0 0.00146484)"/>
</clipPath>
</defs>
</svg>
